<?xml version="1.0" ?>
<!DOCTYPE svg  PUBLIC '-//W3C//DTD SVG 1.1//EN'  'http://www.w3.org/Graphics/SVG/1.1/DTD/svg11.dtd'>
<!-- Uploaded to: SVG Repo, www.svgrepo.com, Generator: SVG Repo Mixer Tools -->
<svg fill="#000000" width="800px" height="800px" viewBox="0 0 32 32" enable-background="new 0 0 32 32" version="1.1" xml:space="preserve" xmlns="http://www.w3.org/2000/svg" xmlns:xlink="http://www.w3.org/1999/xlink">
<g id="play"/>
<g id="stop"/>
<g id="pause"/>
<g id="replay"/>
<g id="next"/>
<g id="Layer_8"/>
<g id="search"/>
<g id="list"/>
<g id="love"/>
<g id="menu"/>
<g id="add"/>
<g id="headset"/>
<g id="random"/>
<g id="music"/>
<g id="setting">
<g>
<g>
<path d="M27,18c0.55,0,1-0.45,1-1v-2c0-0.55-0.45-1-1-1h-1.746c-0.55,0-1.124-0.378-1.275-0.841     c-0.152-0.462-0.411-1.9-0.022-2.289l1.235-1.235c0.389-0.389,0.389-1.025,0-1.414l-1.414-1.414     c-0.389-0.389-1.025-0.389-1.414,0l-1.236,1.236c-0.389,0.389-1.057,0.528-1.483,0.31S18,7.296,18,6.747V5c0-0.55-0.45-1-1-1h-2     c-0.55,0-1,0.45-1,1v1.747c0,0.55-0.378,1.124-0.84,1.276c-0.463,0.151-1.899,0.41-2.288,0.021L9.635,6.807     c-0.389-0.389-1.025-0.389-1.414,0L6.807,8.221c-0.389,0.389-0.389,1.025,0,1.414l1.237,1.237     c0.389,0.389,0.528,1.057,0.31,1.484C8.135,12.783,7.296,14,6.746,14H5c-0.55,0-1,0.45-1,1v2c0,0.55,0.45,1,1,1h1.746     c0.55,0,1.124,0.378,1.275,0.84c0.152,0.462,0.41,1.898,0.021,2.287l-1.236,1.236c-0.389,0.389-0.389,1.025,0,1.414l1.414,1.414     c0.389,0.389,1.025,0.389,1.414,0l1.235-1.235c0.389-0.389,1.057-0.528,1.485-0.31C12.783,23.865,14,24.704,14,25.254V27     c0,0.55,0.45,1,1,1h2c0.55,0,1-0.45,1-1v-1.746c0-0.55,0.378-1.124,0.84-1.275c0.463-0.152,1.899-0.411,2.288-0.022l1.235,1.235     c0.389,0.389,1.025,0.389,1.414,0l1.414-1.414c0.389-0.389,0.389-1.025,0-1.414l-1.235-1.235     c-0.389-0.389-0.528-1.057-0.31-1.483C23.865,19.217,24.704,18,25.254,18H27z"/>
<path d="M17,29h-2c-1.103,0-2-0.897-2-2v-1.605c-0.181-0.239-0.767-0.688-1.1-0.857c-0.12,0.006-0.256,0.059-0.323,0.126     l-1.235,1.235c-0.754,0.754-2.074,0.754-2.828,0L6.1,24.484c-0.78-0.779-0.78-2.049,0-2.828l1.14-1.14     c0.043-0.294-0.053-1.016-0.167-1.363C7.045,19.11,6.883,19,6.746,19H5c-1.103,0-2-0.897-2-2v-2c0-1.103,0.897-2,2-2h1.605     c0.239-0.18,0.688-0.767,0.857-1.1c0.007-0.042-0.03-0.226-0.126-0.321L6.1,10.342c-0.78-0.78-0.78-2.048,0-2.828L7.514,6.1     c0.754-0.754,2.074-0.754,2.828,0l1.138,1.137c0.042,0.005,0.107,0.011,0.2,0.011c0.441,0,0.988-0.116,1.17-0.176     C12.889,7.046,13,6.883,13,6.747V5c0-1.103,0.897-2,2-2h2c1.103,0,2,0.897,2,2v1.606c0.181,0.239,0.767,0.687,1.099,0.857     c0.118-0.007,0.254-0.06,0.321-0.127L21.656,6.1c0.754-0.754,2.074-0.754,2.828,0l1.414,1.414     c0.377,0.377,0.584,0.879,0.584,1.414s-0.207,1.037-0.584,1.414l-1.138,1.138c-0.043,0.294,0.053,1.018,0.168,1.366     C24.955,12.889,25.117,13,25.254,13H27c1.103,0,2,0.897,2,2v2c0,1.103-0.897,2-2,2h-1.605c-0.239,0.181-0.688,0.767-0.857,1.1     c-0.007,0.042,0.03,0.226,0.126,0.321l1.235,1.235c0.78,0.779,0.78,2.049,0,2.828l-1.414,1.414c-0.754,0.754-2.074,0.754-2.828,0     l-1.136-1.136c-0.042-0.005-0.106-0.011-0.199-0.011c-0.441,0-0.987,0.117-1.169,0.177C19.11,24.955,19,25.117,19,25.254V27     C19,28.103,18.103,29,17,29z M17,27v1V27L17,27L17,27z M11.886,22.543c0.332,0,0.651,0.073,0.924,0.213     c0.023,0.012,2.19,1.136,2.19,2.498V27h1.997L17,25.254c0-0.983,0.657-1.94,1.528-2.226c0.337-0.111,1.094-0.276,1.793-0.276     c0.685,0,1.18,0.163,1.514,0.497l1.235,1.235l1.414-1.414l-1.235-1.235c-0.697-0.697-0.908-1.835-0.492-2.646     C22.768,19.167,23.892,17,25.254,17H27v-2h-1.746c-0.983,0-1.94-0.658-2.226-1.53c-0.007-0.021-0.754-2.333,0.221-3.307     l1.235-1.235L23.07,7.514L21.834,8.75c-0.673,0.674-1.85,0.901-2.646,0.493C19.166,9.232,17,8.108,17,6.747V5h-2v1.747     c0,0.983-0.656,1.939-1.527,2.226c-0.34,0.111-1.095,0.275-1.793,0.275c-0.685,0-1.181-0.163-1.515-0.497L8.928,7.514     L7.514,8.928l1.237,1.237c0.696,0.697,0.908,1.834,0.492,2.646C9.232,12.833,8.108,15,6.746,15H5v2h1.746     c0.983,0,1.94,0.657,2.226,1.528c0.007,0.021,0.754,2.33-0.222,3.306L7.514,23.07l1.414,1.414l1.235-1.235     C10.605,22.807,11.249,22.543,11.886,22.543z"/>
</g>
<g>
<circle cx="16" cy="16" r="4.5"/>
<path d="M16,21.5c-3.032,0-5.5-2.468-5.5-5.5c0-3.033,2.468-5.5,5.5-5.5s5.5,2.467,5.5,5.5C21.5,19.032,19.032,21.5,16,21.5z      M16,12.5c-1.93,0-3.5,1.57-3.5,3.5s1.57,3.5,3.5,3.5s3.5-1.57,3.5-3.5S17.93,12.5,16,12.5z"/>
</g>
</g>
</g>
<g id="Layer_17"/>
<g id="Layer_18"/>
<g id="Layer_19"/>
<g id="Layer_20"/>
<g id="Layer_21"/>
<g id="Layer_22"/>
<g id="Layer_23"/>
<g id="Layer_24"/>
<g id="Layer_25"/>
<g id="Layer_26"/>
</svg>