<?xml version="1.0" encoding="utf-8"?>
<!-- Generator: Adobe Illustrator 27.5.0, SVG Export Plug-In . SVG Version: 6.00 Build 0)  -->
<svg version="1.1" id="Layer_1" xmlns="http://www.w3.org/2000/svg" xmlns:xlink="http://www.w3.org/1999/xlink" x="0px" y="0px"
	 viewBox="0 0 7000 4000" style="enable-background:new 0 0 7000 4000;" xml:space="preserve">
<g>
	<rect x="0.322" y="0.365" style="fill-rule:evenodd;clip-rule:evenodd;fill:none;" width="6999.359" height="3999.635"/>
	<g>
		<defs>
			<path id="SVGID_1_" d="M0.322,720.428c402.274-125.518,969.28-165.722,1428.575,328.239l10.028,10.785
				c384.721,413.77,565.133,607.8,714.091,612.995c131.219,4.578,239.343-137.854,442.929-406.043
				c40.001-52.694,83.679-110.233,131.708-172.165c250.001-322.365,366.535-405.245,444.648-344.669
				c52.599,40.792,86.994,146.738,132.966,288.359c42.887,132.131,95.896,295.413,182.97,465.417
				c79.186,154.6,158.322,259.297,235.767,320.662c67.103,53.168,132.914,73.753,196.36,66.054
				c63.49-7.703,124.743-43.744,182.658-103.798c84.691-87.819,162.188-226.891,229.132-403.818
				c44.648-117.999,94.717-198.539,148.216-246.944c51.943-46.997,107.111-63.771,163.708-55.17
				c56.41,8.57,114.136,42.387,171.407,96.614c108.07,102.33,214.721,277.58,307.9,493.06
				c66.212,153.117,152.789,250.6,245.124,299.608c66.567,35.33,136.135,45.458,203.203,33.073
				c67.127-12.394,131.806-47.349,188.522-102.15c94.501-91.314,166.881-237.71,191.754-426.776
				c38.134-289.835,114.96-369.64,218.842-315.776c102.625,53.215,231.561,238.957,375.569,481.499
				c73.566,123.9,161.99,206.069,256.107,253.128c64.03,32.015,130.725,47.785,197.175,49.402v4.288
				c-67.083-1.616-134.424-17.536-199.082-49.866c-94.831-47.416-183.876-130.125-257.885-254.772
				c-143.646-241.924-272.09-427.11-373.847-479.873c-100.5-52.11-175.075,27.054-212.64,312.523
				c-25.009,190.083-97.869,337.358-193.028,429.308c-57.321,55.385-122.751,90.722-190.716,103.27
				c-68.021,12.561-138.543,2.307-205.988-33.489c-93.135-49.435-180.399-147.607-247.035-301.702
				c-92.955-214.959-199.272-389.714-306.931-491.653c-56.633-53.623-113.586-87.046-169.089-95.477
				c-55.319-8.405-109.303,8.042-160.205,54.097c-52.997,47.95-102.674,127.938-147.074,245.287
				c-67.144,177.455-144.949,317.027-230.057,405.273c-58.607,60.773-120.72,97.26-185.241,105.09
				c-64.567,7.834-131.445-13.029-199.507-66.959c-77.92-61.741-157.452-166.904-236.928-322.07
				c-87.255-170.354-140.308-333.785-183.236-466.034c-45.74-140.911-79.962-246.328-131.506-286.3
				c-75.736-58.732-190.614,24.068-438.649,343.897c-48.295,62.275-91.823,119.617-131.691,172.135
				c-204.46,269.343-313.053,412.385-446.464,407.734c-150.758-5.257-331.551-199.702-717.092-614.351l-10.026-10.785
				C967.52,558.756,401.55,599.423,0.322,724.891V720.428z"/>
		</defs>
		<clipPath id="SVGID_00000028318331487836883010000015215675801479186327_">
			<use xlink:href="#SVGID_1_"  style="overflow:visible;"/>
		</clipPath>
		
			<linearGradient id="SVGID_00000002382669459442532600000000017359617441849274_" gradientUnits="userSpaceOnUse" x1="261.6013" y1="267.2972" x2="7023.9048" y2="2396.7705">
			<stop  offset="0" style="stop-color:#021B8C"/>
			<stop  offset="1" style="stop-color:#FF00B2"/>
		</linearGradient>
		
			<rect x="0.322" y="554.707" style="clip-path:url(#SVGID_00000028318331487836883010000015215675801479186327_);fill:url(#SVGID_00000002382669459442532600000000017359617441849274_);" width="6999.359" height="1464.748"/>
	</g>
	<g>
		<defs>
			<path id="SVGID_00000134949796627820405120000009823592270801638573_" d="M0.322,747.793
				c396.473-133.141,952.102-181.042,1416.097,299.249c52.015,53.84,100.384,104.275,145.496,151.31
				c310.974,324.246,467.241,487.184,599.17,496.234c132.929,9.119,242.614-138.502,463.079-435.225
				c28.439-38.273,58.722-79.032,91.507-122.746c252.609-336.808,371.69-424.942,453.908-363.277
				c55.61,41.705,93.561,152.072,144.539,300.324c43.736,127.189,97.092,282.357,179.254,445.673
				c82.051,163.097,163.445,273.081,242.653,336.762c65.347,52.538,129.168,73.491,190.601,66.71
				c61.477-6.787,120.702-41.356,176.786-99.845c82.679-86.227,158.47-224.338,224.588-402.063
				c46.459-124.869,98.719-210.331,154.648-261.502c51.871-47.458,106.911-65.491,163.432-58.174
				c56.356,7.297,114.087,39.837,171.528,93.558c105.77,98.921,210.764,269.844,304.563,487.3
				c71.581,165.953,163.794,271.983,260.683,324.951c65.97,36.067,134.123,47.527,199.385,36.551
				c65.29-10.979,127.747-44.426,182.288-98.157c89.562-88.226,157.784-231.105,182.331-419.057
				c38.586-295.426,113.975-394.634,217.532-354.265c102.474,39.945,232.348,218.532,381.294,479.488
				c83.42,146.162,182.216,240.564,285.662,291.497c55.318,27.236,111.977,42.044,168.333,45.698v4.294
				c-56.992-3.659-114.294-18.613-170.226-46.151c-104.178-51.293-203.61-146.259-287.492-293.226
				c-148.477-260.143-277.693-438.073-379.114-477.609c-100.33-39.111-173.663,59.233-211.75,350.827
				c-24.678,188.954-93.369,332.696-183.571,421.555c-55.177,54.355-118.419,88.201-184.583,99.328
				c-66.195,11.132-135.289-0.474-202.137-37.019c-97.695-53.411-190.592-160.125-262.576-327.012
				c-93.581-216.95-198.227-387.381-303.541-485.874c-56.787-53.111-113.722-85.263-169.146-92.438
				c-55.258-7.154-109.144,10.545-160.013,57.084c-55.434,50.718-107.305,135.629-153.522,259.846
				c-66.321,178.266-142.417,316.877-225.51,403.535c-56.785,59.22-116.882,94.237-179.405,101.137
				c-62.573,6.907-127.458-14.333-193.752-67.633c-79.674-64.056-161.46-174.51-243.793-338.169
				c-82.311-163.614-135.714-318.913-179.487-446.21c-50.734-147.548-88.508-257.389-143.049-298.294
				c-79.794-59.848-197.23,28.172-447.921,362.423c-32.305,43.074-62.832,84.157-91.491,122.728
				c-221.4,297.985-331.551,446.232-466.801,436.951c-133.583-9.165-290.234-172.502-601.972-497.543
				c-45.11-47.036-93.481-97.47-145.494-151.311C950.385,570.803,395.763,619.201,0.322,752.302V747.793z"/>
		</defs>
		<clipPath id="SVGID_00000178165754589048090540000000773184333532723586_">
			<use xlink:href="#SVGID_00000134949796627820405120000009823592270801638573_"  style="overflow:visible;"/>
		</clipPath>
		
			<linearGradient id="SVGID_00000168803848062902281700000012046189802229626527_" gradientUnits="userSpaceOnUse" x1="254.2218" y1="290.7378" x2="7016.5225" y2="2420.2102">
			<stop  offset="0" style="stop-color:#021B8C"/>
			<stop  offset="1" style="stop-color:#FF00B2"/>
		</linearGradient>
		
			<rect x="0.322" y="566.751" style="clip-path:url(#SVGID_00000178165754589048090540000000773184333532723586_);fill:url(#SVGID_00000168803848062902281700000012046189802229626527_);" width="6999.359" height="1492.188"/>
	</g>
	<g>
		<defs>
			<path id="SVGID_00000155136388991081211390000013960384259036225697_" d="M0.322,774.42
				c390.688-140.54,935.223-195.762,1403.609,270.987c97.429,97.088,182.177,183.907,256.763,260.321
				c254.79,261.015,390.949,400.5,508.313,412.51c134.346,13.744,245.723-140.116,484.909-470.554l49.764-68.689
				c255.104-351.54,376.961-445.103,463.548-382.268c59.016,42.823,100.85,158.503,157.313,314.641
				c44.059,121.829,97.053,268.369,173.968,423.964c84.891,171.734,168.435,287.117,249.254,353.124
				c63.601,51.941,125.476,73.246,184.946,67.33c59.503-5.918,116.75-39.091,171.055-96.09
				c80.681-84.688,154.779-221.857,220.079-400.333c48.291-131.996,102.775-222.677,161.199-276.785
				c51.758-47.935,106.621-67.23,163.031-61.166c56.258,6.047,113.96,37.358,171.563,90.655
				c103.561,95.82,206.992,262.894,301.314,482.085c77.084,179.136,174.826,294.129,275.98,351.239
				c65.175,36.796,131.776,49.553,195.16,39.944c63.392-9.609,123.613-41.603,176.021-94.29
				c84.95-85.405,149.377-225.13,173.617-412.057c39.039-301.045,112.986-419.637,216.199-392.75
				c102.333,26.657,233.161,198.078,387.038,477.453c93.411,169.596,201.924,276.51,313.658,330.762
				c46.742,22.696,94.05,36.174,141.055,41.175v4.305c-47.633-5.013-95.573-18.636-142.914-41.627
				c-112.505-54.625-221.685-162.129-315.554-332.556c-153.312-278.347-283.289-449.044-384.355-475.371
				c-100.189-26.099-172.281,91.443-210.886,389.145c-24.373,187.928-89.252,328.507-174.826,414.538
				c-53.074,53.357-114.117,85.764-178.418,95.513c-64.307,9.749-131.842-3.171-197.892-40.463
				c-101.943-57.556-200.352-173.227-277.824-353.265c-94.1-218.679-197.177-385.256-300.275-480.647
				c-56.918-52.662-113.797-83.585-169.115-89.531c-55.167-5.929-108.898,13.012-159.679,60.041
				c-57.925,53.645-112.021,143.77-160.074,275.111c-65.501,179.029-139.908,316.705-221.001,401.826
				c-55.014,57.747-113.156,91.37-173.737,97.395c-60.61,6.03-123.537-15.57-188.067-68.27
				c-81.291-66.391-165.225-182.248-250.397-354.548c-77.018-155.803-130.055-302.466-174.151-424.397
				c-56.207-155.423-97.85-270.575-155.803-312.628c-84.124-61.048-204.34,32.363-457.563,381.31l-49.762,68.689
				c-240.173,331.798-352.008,486.291-488.819,472.296c-118.906-12.167-255.442-152.04-510.943-413.785
				c-74.582-76.409-159.329-163.226-256.713-260.269C933.561,582.721,389.992,638.442,0.322,778.944V774.42z"/>
		</defs>
		<clipPath id="SVGID_00000166675755000922218440000017036581562063764867_">
			<use xlink:href="#SVGID_00000155136388991081211390000013960384259036225697_"  style="overflow:visible;"/>
		</clipPath>
		
			<linearGradient id="SVGID_00000000186938323032278030000001447898688707689646_" gradientUnits="userSpaceOnUse" x1="246.7324" y1="314.5259" x2="7009.0356" y2="2443.9993">
			<stop  offset="0" style="stop-color:#021B8C"/>
			<stop  offset="1" style="stop-color:#FF00B2"/>
		</linearGradient>
		
			<rect x="0.322" y="578.658" style="clip-path:url(#SVGID_00000166675755000922218440000017036581562063764867_);fill:url(#SVGID_00000000186938323032278030000001447898688707689646_);" width="6999.359" height="1520.667"/>
	</g>
	<g>
		<defs>
			<path id="SVGID_00000077303949734341417490000008430543672293716361_" d="M0.322,800.161
				c384.917-147.664,918.704-209.68,1391.131,243.621c139.584,133.933,253.45,250.074,348.681,347.206
				c211.971,216.2,331.497,338.111,436.52,352.393c135.435,18.42,248.613-142.703,508.11-512.128l6.938-9.877
				c257.457-366.513,382.326-465.689,473.538-401.616c62.88,44.172,108.961,166.157,171.455,331.604
				c43.794,115.932,95.673,253.269,166.949,399.968c87.702,180.499,173.284,301.391,255.584,369.747
				c61.858,51.377,121.816,73.001,179.381,67.905c57.585-5.098,112.918-36.948,165.48-92.513
				c78.698-83.203,151.125-219.456,215.604-398.651c50.143-139.354,106.867-235.569,167.816-292.771
				c51.595-48.422,106.231-68.97,162.493-64.133c56.132,4.826,113.775,34.951,171.518,87.889
				c101.479,93.035,203.443,256.703,298.212,477.425c82.701,192.61,185.813,316.971,290.907,378.407
				c64.226,37.542,129.179,51.563,190.622,43.276c61.44-8.285,119.447-38.888,169.782-90.576
				c80.649-82.823,141.605-219.726,165.561-405.738c39.5-306.68,111.99-444.624,214.841-431.196
				c102.205,13.343,233.986,177.579,392.801,475.388c103.453,193.996,220.912,313.653,339.853,370.673
				c38.511,18.46,77.184,30.357,115.584,36.079v4.324c-39.021-5.749-78.308-17.795-117.429-36.55
				c-119.735-57.399-237.866-177.66-341.782-372.515c-158.139-296.539-288.867-460.013-389.582-473.16
				c-100.06-13.066-170.917,123.703-210.045,427.492c-24.083,186.992-85.477,324.736-166.735,408.184
				c-51.019,52.392-109.879,83.417-172.279,91.833c-62.399,8.418-128.288-5.777-193.354-43.812
				c-105.845-61.872-209.6-186.911-292.685-380.416c-94.544-220.193-196.147-383.366-297.158-475.969
				c-57.027-52.283-113.823-82.023-168.983-86.765c-55.033-4.732-108.562,15.447-159.208,62.979
				c-60.474,56.758-116.824,152.413-166.725,291.093c-64.675,179.74-137.407,316.497-216.526,400.144
				c-53.301,56.346-109.541,88.657-168.213,93.852c-58.692,5.197-119.695-16.741-182.484-68.893
				c-82.762-68.74-168.725-190.103-256.704-371.171c-71.374-146.898-123.282-284.315-167.104-400.32
				c-62.224-164.739-108.111-286.201-169.91-329.613c-88.717-62.319-211.948,36.676-467.572,400.578l-6.938,9.877
				c-260.535,370.905-374.17,532.674-512.183,513.905c-106.481-14.482-226.377-136.768-438.998-353.634
				c-95.207-97.105-209.041-213.212-348.598-347.12C917.08,594.544,384.231,657.095,0.322,804.734V800.161z"/>
		</defs>
		<clipPath id="SVGID_00000145058590154299481820000016289621301010716578_">
			<use xlink:href="#SVGID_00000077303949734341417490000008430543672293716361_"  style="overflow:visible;"/>
		</clipPath>
		
			<linearGradient id="SVGID_00000024710793058826275820000016910163173420604095_" gradientUnits="userSpaceOnUse" x1="239.1254" y1="338.6656" x2="7001.4282" y2="2468.1387">
			<stop  offset="0" style="stop-color:#021B8C"/>
			<stop  offset="1" style="stop-color:#FF00B2"/>
		</linearGradient>
		
			<rect x="0.322" y="590.482" style="clip-path:url(#SVGID_00000145058590154299481820000016289621301010716578_);fill:url(#SVGID_00000024710793058826275820000016910163173420604095_);" width="6999.359" height="1550.09"/>
	</g>
	<g>
		<defs>
			<path id="SVGID_00000124159725462094692500000013484353079612938122_" d="M0.322,825.057
				c379.165-154.509,902.52-222.874,1378.645,217.094c178.681,165.114,315.69,305.998,425.294,418.703
				c121.905,125.355,209.89,215.827,283.511,265.91c182.8,124.352,278.116-1.668,591.944-463.003
				c259.665-381.708,387.787-486.703,483.876-421.34c67.253,45.751,117.987,175.182,187.132,351.574
				c42.861,109.351,92.82,236.794,158.047,373.325c90.474,189.377,177.98,315.883,261.616,386.613
				c60.137,50.857,118.224,72.798,173.918,68.478c55.7-4.319,109.168-34.925,160.046-89.136
				c76.749-81.774,147.525-217.134,211.184-397c51.987-146.894,110.964-248.967,174.48-309.453
				c51.377-48.926,105.75-70.716,161.832-67.08c55.972,3.631,113.527,32.619,171.382,85.25
				c99.514,90.529,200.117,251.218,295.28,473.319c88.412,206.348,196.692,340.482,305.359,406.407
				c63.123,38.294,126.365,53.542,185.883,46.53c59.474-7.01,115.294-36.277,163.615-87.008
				c76.639-80.462,134.417-214.842,158.111-400.032c24.343-190.282,60.13-322.95,107.441-397.496
				c27.378-43.145,58.689-66.972,93.929-71.38c35.162-4.397,74.054,10.611,116.678,45.12
				c83.269,67.407,181.229,209.652,294.001,427.438c113.493,219.179,239.001,351.757,364.052,411.008
				c30.793,14.589,61.557,24.73,92.102,30.625v4.355c-31.163-5.935-62.536-16.235-93.928-31.109
				c-125.871-59.641-252.078-192.842-366.033-412.918c-112.494-217.259-210.089-359.05-292.896-426.082
				c-41.664-33.732-79.483-48.428-113.456-44.18c-33.895,4.238-64.17,27.41-90.827,69.419
				c-46.983,74.029-82.566,206.111-106.825,395.737c-23.816,186.155-82.017,321.363-159.248,402.449
				c-49.03,51.477-105.747,81.184-166.234,88.311c-60.448,7.123-124.61-8.321-188.583-47.13
				c-109.395-66.366-218.298-201.167-307.083-408.385c-94.915-221.527-195.159-381.71-294.223-471.831
				c-57.125-51.967-113.807-80.579-168.771-84.143c-54.856-3.558-108.146,17.855-158.607,65.908
				c-63.035,60.028-121.641,161.542-173.395,307.774c-63.852,180.422-134.938,316.293-212.102,398.511
				c-51.623,55.005-106.024,86.067-162.848,90.475c-56.829,4.407-115.954-17.853-177.004-69.483
				c-84.078-71.103-171.95-198.082-262.701-388.037c-65.366-136.82-115.324-264.262-158.185-373.613
				c-68.87-175.69-119.401-304.603-185.539-349.596c-93.573-63.653-220.065,41.126-477.939,420.203
				c-315.703,464.093-411.672,590.81-597.88,464.14c-74.008-50.344-162.113-140.942-284.18-266.463
				c-109.548-112.647-246.492-253.462-425.128-418.536C900.949,606.262,378.495,675.171,0.322,829.66V825.057z"/>
		</defs>
		<clipPath id="SVGID_00000021088077352491482660000017463732234902823810_">
			<use xlink:href="#SVGID_00000124159725462094692500000013484353079612938122_"  style="overflow:visible;"/>
		</clipPath>
		
			<linearGradient id="SVGID_00000168814781737795787100000006692319511319491976_" gradientUnits="userSpaceOnUse" x1="231.429" y1="363.1209" x2="6993.7305" y2="2492.5938">
			<stop  offset="0" style="stop-color:#021B8C"/>
			<stop  offset="1" style="stop-color:#FF00B2"/>
		</linearGradient>
		
			<rect x="0.322" y="602.183" style="clip-path:url(#SVGID_00000021088077352491482660000017463732234902823810_);fill:url(#SVGID_00000168814781737795787100000006692319511319491976_);" width="6999.359" height="1580.447"/>
	</g>
	<g>
		<defs>
			<path id="SVGID_00000157996156420042969190000011285559940964174732_" d="M0.322,849.102
				c373.451-161.067,886.68-235.339,1366.165,191.421c214.965,191.327,370.263,354.158,489.806,479.497
				c109.854,115.181,189.489,198.681,257.342,243.397c163.663,107.862,260.055-11.107,554.1-457.278
				c261.701-397.099,393.34-508.122,494.547-441.425c72.163,47.557,128.022,185.748,204.517,375
				c41.161,101.832,88.314,218.486,147.108,343.604c93.217,198.364,182.514,330.587,267.325,403.702
				c58.435,50.374,114.688,72.612,168.564,69.028c53.871-3.583,105.527-33,154.774-85.919
				c74.819-80.403,143.975-214.896,206.813-395.4c53.821-154.601,115.034-262.859,181.124-326.805
				c51.119-49.458,105.189-72.484,161.052-70.017c55.769,2.463,113.211,30.36,171.173,82.752
				c97.703,88.309,197.061,246.4,292.558,469.727c94.195,220.282,207.406,364.583,319.279,435.174
				c61.923,39.075,123.413,55.529,180.98,49.748c57.519-5.777,111.207-33.772,157.596-83.598
				c72.895-78.297,127.758-210.422,151.205-394.893c25.971-204.33,63.895-350.216,114.647-431.859
				c27.655-44.493,59.195-70.049,94.749-75.744c35.524-5.689,74.852,8.501,118.109,43.484
				c81.575,65.977,177.581,206.319,288.952,427.284c88.938,176.455,182.623,301.386,276.706,380.276
				c60.293,50.553,120.73,82.18,180.168,96.326v4.395c-60.4-14.18-121.768-46.16-182.918-97.434
				c-94.513-79.248-188.566-204.633-277.782-381.636c-111.09-220.411-206.715-360.286-287.81-425.876
				c-42.27-34.185-80.478-48.085-114.757-42.596c-34.245,5.487-64.802,30.382-91.781,73.783
				c-50.427,81.121-88.151,226.43-114.045,430.134c-23.567,185.415-78.836,318.353-152.312,397.274
				c-47.117,50.609-101.734,79.056-160.309,84.937c-58.519,5.877-120.927-10.786-183.678-50.383
				c-112.568-71.032-226.384-215.991-320.941-437.118c-95.255-222.763-194.248-380.349-291.484-468.238
				c-57.201-51.703-113.742-79.227-168.492-81.646c-54.652-2.414-107.658,20.215-157.884,68.812
				c-65.625,63.494-126.476,171.197-180.069,325.144c-63.032,181.063-132.491,316.068-207.718,396.91
				c-50.004,53.735-102.613,83.616-157.636,87.276c-55.009,3.658-112.291-18.911-171.632-70.067
				c-85.251-73.496-174.914-206.193-268.397-405.127c-58.897-125.339-106.052-241.991-147.211-343.824
				c-76.209-188.537-131.855-326.207-202.891-373.021c-98.665-65.024-228.674,45.754-488.631,440.201
				c-295.877,448.952-393.043,568.545-560.018,458.501c-68.297-45.011-148.063-128.644-258.096-244.015
				c-119.478-125.271-274.692-288.014-489.553-479.248C885.141,617.845,372.795,692.701,0.322,853.763V849.102z"/>
		</defs>
		<clipPath id="SVGID_00000014623882930400932300000000356979119813692605_">
			<use xlink:href="#SVGID_00000157996156420042969190000011285559940964174732_"  style="overflow:visible;"/>
		</clipPath>
		
			<linearGradient id="SVGID_00000005250682458985738750000013051473676506982041_" gradientUnits="userSpaceOnUse" x1="223.6374" y1="387.865" x2="6985.9385" y2="2517.3376">
			<stop  offset="0" style="stop-color:#021B8C"/>
			<stop  offset="1" style="stop-color:#FF00B2"/>
		</linearGradient>
		
			<rect x="0.322" y="613.764" style="clip-path:url(#SVGID_00000014623882930400932300000000356979119813692605_);fill:url(#SVGID_00000005250682458985738750000013051473676506982041_);" width="6999.359" height="1611.68"/>
	</g>
	<g>
		<defs>
			<path id="SVGID_00000075129211687091386090000002470331612240898435_" d="M0.322,872.208
				c367.766-167.296,871.21-246.972,1353.677,166.685c248.663,213.197,418.384,396.436,544.754,532.871
				c100.713,108.738,173.861,187.707,237.36,228.267c147.339,94.108,244-19.965,519.638-451.516
				c263.57-412.659,398.986-529.932,505.545-461.873c77.691,49.622,139.188,198.084,223.83,402.419
				c38.577,93.129,81.977,197.899,133.918,310.242c95.907,207.438,186.866,345.475,272.711,421.005
				c56.763,49.943,111.221,72.47,163.316,69.586c52.087-2.882,101.995-31.177,149.658-82.866
				c72.912-79.074,140.471-212.735,202.494-393.839c55.632-162.441,119.048-277.227,187.724-344.826
				c50.814-50.019,104.547-74.27,160.168-72.944c55.552,1.324,112.864,28.182,170.909,80.377
				c96.011,86.332,194.232,242.18,290.044,466.659c100.036,234.38,217.916,389.229,332.609,464.657
				c60.633,39.877,120.345,57.511,176.003,52.922c55.585-4.583,107.203-31.373,151.73-80.336
				c69.402-76.324,121.587-206.429,144.811-390.274c27.555-218.143,67.404-378.173,121.461-467.434
				c27.866-46.014,59.583-73.356,95.396-80.314c35.824-6.959,75.558,6.51,119.425,42.113
				c80.093,65.009,174.424,204.254,284.576,428.287c96.08,195.412,194.946,332.502,292.896,417.192
				c55.439,47.932,110.569,79.057,164.707,94.453v4.442c-55.11-15.446-111.182-46.96-167.505-95.659
				c-98.368-85.052-197.593-222.595-293.938-418.548c-109.867-223.454-203.81-362.221-283.438-426.848
				c-42.813-34.749-81.368-47.937-115.917-41.225c-34.556,6.714-65.327,33.382-92.546,78.324
				c-53.736,88.728-93.396,248.197-120.877,465.756c-23.34,184.771-75.917,315.675-145.884,392.62
				c-45.286,49.8-97.863,77.052-154.542,81.727c-56.606,4.67-117.235-13.2-178.703-53.625
				c-115.362-75.869-233.823-231.363-334.203-466.55c-95.558-223.889-193.414-379.231-288.97-465.152
				c-57.264-51.493-113.649-77.987-168.141-79.287c-54.423-1.298-107.113,22.545-157.071,71.72
				c-68.199,67.131-131.256,181.357-186.668,343.148c-62.216,181.67-130.075,315.847-203.399,395.367
				c-48.435,52.529-99.31,81.291-152.571,84.239c-53.253,2.946-108.737-19.919-166.385-70.641
				c-86.277-75.911-177.594-214.424-273.766-422.43c-51.934-112.33-95.374-217.194-133.986-310.409
				c-84.342-203.614-145.622-351.551-222.169-400.44c-103.995-66.423-237.781,50.576-499.644,460.563
				c-277.427,434.35-374.974,548.992-525.54,452.825c-63.956-40.849-137.261-119.992-238.197-228.971
				c-126.274-136.33-295.866-319.43-544.403-532.52C869.726,629.329,367.129,709.592,0.322,876.896V872.208z"/>
		</defs>
		<clipPath id="SVGID_00000161597611134295720340000005079936288341503933_">
			<use xlink:href="#SVGID_00000075129211687091386090000002470331612240898435_"  style="overflow:visible;"/>
		</clipPath>
		
			<linearGradient id="SVGID_00000124137548554912320460000000057108704136280723_" gradientUnits="userSpaceOnUse" x1="215.7568" y1="412.887" x2="6978.0571" y2="2542.3594">
			<stop  offset="0" style="stop-color:#021B8C"/>
			<stop  offset="1" style="stop-color:#FF00B2"/>
		</linearGradient>
		
			<rect x="0.322" y="625.237" style="clip-path:url(#SVGID_00000161597611134295720340000005079936288341503933_);fill:url(#SVGID_00000124137548554912320460000000057108704136280723_);" width="6999.359" height="1643.741"/>
	</g>
	<g>
		<defs>
			<path id="SVGID_00000086666043417281145190000016625822254984202126_" d="M0.322,894.492
				c362.141-173.225,856.072-257.93,1341.201,142.774c280.144,231.389,461.173,434.311,592.127,581.101
				c93.596,104.914,161.578,181.115,221.686,218.336c133.515,82.677,229.737-28.037,488.435-445.809
				c265.248-428.351,404.712-552.111,516.841-482.677c83.904,51.958,151.632,212.471,245.313,434.5
				c34.996,82.946,73.632,174.512,118.257,272.578c98.56,216.591,191.048,360.552,277.762,438.515
				c55.112,49.546,107.821,72.354,158.2,70.139c50.354-2.215,98.562-29.447,144.687-79.967
				c71.04-77.806,137.032-210.662,198.243-392.338c57.402-170.364,122.974-292.022,194.203-363.448
				c50.481-50.623,103.853-76.096,159.213-75.879c55.301,0.215,112.463,26.087,170.59,78.132
				c94.472,84.591,191.669,238.528,287.769,464.082c105.913,248.58,228.175,414.341,345.31,494.776
				c59.304,40.723,117.246,59.528,171.011,56.088c53.68-3.433,103.3-29.069,146.049-77.226
				c66.138-74.506,115.853-202.809,138.867-386.126c41.368-329.468,108.07-544.607,209.391-584.677
				c101.646-40.201,237.26,95.108,415.88,466.803c103.146,214.641,206.667,364.028,307.847,454.426
				c50.886,45.462,101.158,75.976,150.48,92.35v4.5c-50.305-16.447-101.535-47.392-153.33-93.666
				c-101.59-90.763-205.451-240.596-308.852-455.764c-177.404-369.167-311.137-503.934-410.451-464.657
				c-99.643,39.409-165.542,253.318-206.707,581.205c-23.127,184.216-73.228,313.302-139.924,388.439
				c-43.538,49.049-94.155,75.16-148.978,78.669c-54.736,3.502-113.59-15.552-173.698-56.827
				c-117.773-80.873-240.591-247.269-346.833-496.633c-95.856-224.975-192.68-378.405-286.681-462.576
				c-57.315-51.321-113.525-76.83-167.756-77.042c-54.168-0.21-106.518,24.84-156.164,74.621
				c-70.77,70.968-135.995,192.068-193.179,361.788c-61.407,182.25-127.691,315.619-199.132,393.866
				c-46.916,51.387-96.113,79.089-147.671,81.357c-51.532,2.264-105.263-20.896-161.249-71.229
				c-87.155-78.359-179.995-222.786-278.8-439.922c-44.425-97.627-83.185-189.486-118.292-272.693
				c-93.374-221.299-160.876-381.285-243.616-432.522c-109.547-67.832-247.373,55.623-510.958,481.283
				c-260.441,420.585-357.646,531.835-494.317,447.203c-60.672-37.568-128.821-113.958-222.644-219.125
				c-130.855-146.682-311.752-349.452-591.659-580.645C854.614,640.654,361.518,725.988,0.322,899.239V894.492z"/>
		</defs>
		<clipPath id="SVGID_00000130631477024717693290000002230145533670097068_">
			<use xlink:href="#SVGID_00000086666043417281145190000016625822254984202126_"  style="overflow:visible;"/>
		</clipPath>
		
			<linearGradient id="SVGID_00000080180933296403292410000001370054462930594717_" gradientUnits="userSpaceOnUse" x1="207.804" y1="438.1417" x2="6970.1079" y2="2567.6152">
			<stop  offset="0" style="stop-color:#021B8C"/>
			<stop  offset="1" style="stop-color:#FF00B2"/>
		</linearGradient>
		
			<rect x="0.322" y="636.563" style="clip-path:url(#SVGID_00000130631477024717693290000002230145533670097068_);fill:url(#SVGID_00000080180933296403292410000001370054462930594717_);" width="6999.359" height="1676.607"/>
	</g>
	<g>
		<defs>
			<path id="SVGID_00000100379656813782603230000013582828983457158298_" d="M0.322,915.765
				c356.559-178.78,841.32-267.972,1328.713,119.879c309.612,246.381,499.512,468.85,633.465,625.778
				c87.854,102.918,151.604,177.603,209.075,212.117c121.813,73.154,217.001-35.279,460.214-440.266
				c266.74-444.153,410.521-574.639,528.422-503.833c90.903,54.596,165.519,229.262,269.255,472.101
				c30.429,71.229,63.37,148.337,99.842,229.752c160.536,358.346,302.55,525.623,429.454,526.975
				c126.732,1.35,239.014-163.084,340.156-468.17c59.123-178.336,126.78-307.206,200.535-382.654
				c50.126-51.275,103.111-77.96,158.196-78.827c55.042-0.865,112.051,24.064,170.251,76.01
				c93.054,83.056,189.338,235.375,285.723,461.978c111.811,262.863,238.158,439.886,357.367,525.499
				c57.923,41.596,114.106,61.556,166.038,59.235c51.815-2.318,99.508-26.863,140.569-74.276
				c63.089-72.848,110.532-199.544,133.356-382.412c41.839-335.214,107.126-569.607,208.081-622.972
				c101.472-53.639,238.021,74.394,421.594,464.582c110.125,234.067,217.767,395.867,321.593,491.889
				c46.65,43.143,92.509,72.978,137.458,90.103v4.575c-45.944-17.228-92.775-47.538-140.36-91.546
				c-104.226-96.391-212.196-258.631-322.562-493.211c-182.216-387.303-316.726-514.939-415.729-462.603
				c-99.521,52.606-164.149,285.844-205.818,619.703c-22.935,183.75-70.748,311.219-134.378,384.69
				c-41.869,48.345-90.6,73.381-143.621,75.752c-52.906,2.367-109.998-17.866-168.721-60.037
				c-119.813-86.046-246.682-263.689-358.807-527.293c-96.141-226.022-192.05-377.834-284.635-460.473
				c-57.361-51.196-113.387-75.765-167.333-74.919c-53.906,0.847-105.888,27.095-155.195,77.536
				c-73.311,74.993-140.634,203.309-199.547,381.014c-101.779,307.008-215.377,472.474-344.246,471.101
				c-128.701-1.372-272.027-169.453-433.326-529.508c-36.62-81.741-69.502-158.713-99.877-229.815
				c-103.417-242.098-177.809-416.235-267.512-470.109c-115.302-69.245-257.438,60.908-522.555,502.361
				c-244.912,407.811-341.17,516.752-466.082,441.737c-58.083-34.882-122.02-109.785-210.13-213.005
				c-133.842-156.795-323.578-379.077-632.878-625.207C839.919,651.892,355.953,741.721,0.322,920.546V915.765z"/>
		</defs>
		<clipPath id="SVGID_00000078009846637391655390000006048033096696815290_">
			<use xlink:href="#SVGID_00000100379656813782603230000013582828983457158298_"  style="overflow:visible;"/>
		</clipPath>
		
			<linearGradient id="SVGID_00000131348373358801639570000000413012169931758248_" gradientUnits="userSpaceOnUse" x1="199.7775" y1="463.6346" x2="6962.0835" y2="2593.1086">
			<stop  offset="0" style="stop-color:#021B8C"/>
			<stop  offset="1" style="stop-color:#FF00B2"/>
		</linearGradient>
		
			<rect x="0.322" y="647.793" style="clip-path:url(#SVGID_00000078009846637391655390000006048033096696815290_);fill:url(#SVGID_00000131348373358801639570000000413012169931758248_);" width="6999.359" height="1710.187"/>
	</g>
	<g>
		<defs>
			<path id="SVGID_00000133491438759415234700000016653765301118859195_" d="M0.322,936.23
				c351.048-184.02,826.892-277.384,1316.223,97.788c337.365,258.657,534.179,500.893,669.962,668.015
				c83.087,102.262,143.278,176.348,198.622,208.592c111.87,65.174,205.569-41.727,434.679-434.972
				c268.033-460.05,416.399-597.5,540.261-525.338c98.783,57.552,181.041,248.892,295.984,516.27
				c24.524,57.05,50.538,117.568,78.391,180.698c160.802,364.483,300.811,538.992,425.498,545.211
				c124.435,6.207,234.253-155.664,334.816-463.941c60.775-186.308,130.443-322.731,206.692-402.408
				c49.738-51.977,102.33-79.873,157.139-81.794c54.78-1.923,111.627,22.116,169.895,73.995
				c91.762,81.705,187.239,232.683,283.919,460.336c117.715,277.182,247.839,465.805,368.755,556.752
				c56.526,42.518,110.986,63.629,161.131,62.389c50.004-1.234,95.847-24.748,135.306-71.468
				c60.235-71.324,105.583-196.584,128.229-379.092c42.314-340.98,106.192-594.623,206.8-661.262
				c101.276-67.085,238.75,53.66,427.279,462.344c164.308,356.172,317.187,555.84,459.776,617.321v4.613
				c-144.138-61.204-298.325-261.73-463.665-620.14c-187.029-405.438-322.317-525.95-421.029-460.567
				c-99.384,65.83-162.733,318.398-204.903,658.211c-22.756,183.374-68.458,309.394-129.218,381.34
				c-40.285,47.698-87.205,71.708-138.475,72.974c-51.128,1.263-106.488-20.137-163.796-63.243
				c-121.499-91.38-252.116-280.608-370.13-558.494c-96.423-227.048-191.525-377.517-282.829-458.812
				c-57.408-51.115-113.254-74.805-166.912-72.923c-53.628,1.882-105.233,29.329-154.186,80.48
				c-75.791,79.193-145.123,215.062-205.706,400.775c-101.225,310.304-212.409,473.21-339.091,466.888
				c-126.437-6.306-267.691-181.632-429.218-547.759c-28.017-63.507-53.959-123.846-78.41-180.729
				c-114.622-266.629-196.648-457.432-294.189-514.261c-121.249-70.639-267.965,66.451-534.412,523.78
				c-230.762,396.082-325.609,503.483-440.528,436.53c-56.02-32.638-116.418-106.98-199.794-209.597
				c-135.649-166.959-332.271-408.956-669.241-667.311C825.523,662.945,350.461,756.984,0.322,941.075V936.23z"/>
		</defs>
		<clipPath id="SVGID_00000108267413614442323870000002286648412499234225_">
			<use xlink:href="#SVGID_00000133491438759415234700000016653765301118859195_"  style="overflow:visible;"/>
		</clipPath>
		
			<linearGradient id="SVGID_00000147911261566762196850000010938260094289544610_" gradientUnits="userSpaceOnUse" x1="191.6936" y1="489.3049" x2="6953.9995" y2="2618.7791">
			<stop  offset="0" style="stop-color:#021B8C"/>
			<stop  offset="1" style="stop-color:#FF00B2"/>
		</linearGradient>
		
			<rect x="0.322" y="658.846" style="clip-path:url(#SVGID_00000108267413614442323870000002286648412499234225_);fill:url(#SVGID_00000147911261566762196850000010938260094289544610_);" width="6999.359" height="1744.513"/>
	</g>
	<g>
		<defs>
			<path id="SVGID_00000043427673544538049460000006421040404520332179_" d="M0.322,955.632
				c345.6-188.859,812.88-285.836,1303.747,76.767c363.632,268.614,565.791,531.065,702.533,708.586
				c79.029,102.598,136.159,176.767,189.725,207.053c103.354,58.434,195.223-47.464,411.506-430.008
				c269.12-476.003,422.345-620.671,552.339-547.173c107.669,60.874,198.415,271.927,325.877,568.373
				c17.4,40.468,35.476,82.512,53.525,124.041c161.068,370.622,299.078,552.369,421.557,563.458
				c122.141,11.057,229.489-148.25,329.479-459.722c62.364-194.273,133.936-338.59,212.608-422.659
				c49.349-52.737,101.541-81.843,156.062-84.797c54.51-2.955,111.206,20.241,169.551,72.098
				c90.6,80.523,185.369,230.401,282.353,459.113c123.611,291.505,257.2,492.043,379.495,588.488
				c55.131,43.48,107.898,65.736,156.315,65.554c48.252-0.182,92.322-22.711,130.249-68.783
				c57.563-69.931,100.968-193.917,123.458-376.15c42.796-346.763,105.275-619.653,205.546-699.552
				c101.066-80.532,239.452,32.929,432.938,460.114c168.955,373.036,320.337,585.006,460.497,652.722v4.704
				c-141.709-67.369-294.367-280.244-464.404-655.666c-191.845-423.563-327.932-536.958-426.366-458.523
				c-99.225,79.066-161.284,350.97-203.954,696.72c-22.595,183.072-66.34,307.8-124.411,378.347
				c-38.784,47.115-83.974,70.152-133.553,70.341c-49.411,0.185-103.071-22.378-158.963-66.459
				c-122.829-96.865-256.882-297.996-380.785-590.196c-96.717-228.084-191.115-377.448-281.264-457.571
				c-57.456-51.068-113.117-73.918-166.483-71.026c-53.358,2.893-104.584,31.532-153.16,83.441
				c-78.229,83.596-149.479,227.367-211.654,421.051c-100.674,313.602-209.439,473.939-333.939,462.669
				c-124.163-11.241-263.343-193.81-425.093-566.006c-19.141-44.044-36.672-84.814-53.542-124.055
				c-127.137-295.689-217.652-506.202-324.033-566.348c-127.375-72.014-278.944,72.27-546.523,545.547
				c-217.887,385.379-310.961,491.77-417.322,431.635c-54.342-30.723-111.69-105.173-191.019-208.16
				c-136.592-177.327-338.531-439.493-701.696-707.762C811.553,673.899,345.025,771.551,0.322,960.499V955.632z"/>
		</defs>
		<clipPath id="SVGID_00000045598656868862148470000000706224035317650360_">
			<use xlink:href="#SVGID_00000043427673544538049460000006421040404520332179_"  style="overflow:visible;"/>
		</clipPath>
		
			<linearGradient id="SVGID_00000176737135589802485700000002577349468314868887_" gradientUnits="userSpaceOnUse" x1="183.5479" y1="515.1665" x2="6945.8511" y2="2644.6399">
			<stop  offset="0" style="stop-color:#021B8C"/>
			<stop  offset="1" style="stop-color:#FF00B2"/>
		</linearGradient>
		
			<rect x="0.322" y="669.797" style="clip-path:url(#SVGID_00000045598656868862148470000000706224035317650360_);fill:url(#SVGID_00000176737135589802485700000002577349468314868887_);" width="6999.359" height="1779.466"/>
	</g>
	<g>
		<defs>
			<path id="SVGID_00000062173850767927050670000004648000563639134367_" d="M0.322,974.225
				c340.237-193.358,799.176-293.669,1291.257,56.548c388.635,276.592,594.88,559.859,731.916,748.066
				c75.46,103.641,129.88,178.385,181.959,206.967c95.993,52.681,185.79-52.589,390.396-425.406
				c270.01-491.999,428.368-644.137,564.651-569.344c117.695,64.593,217.912,299.102,359.4,630.198l24.809,58.014
				c161.327,376.759,297.333,565.736,417.597,581.694c119.844,15.903,224.728-140.842,324.14-455.501
				c63.873-202.171,137.244-354.714,218.284-443.375c48.949-53.554,100.741-83.875,154.981-87.84
				c54.246-3.966,110.794,18.429,169.222,70.304c89.567,79.515,183.734,228.511,281.027,458.284
				c129.501,305.828,266.248,518.587,389.591,620.683c53.739,44.48,104.845,67.88,151.585,68.725
				c46.569,0.843,88.95-20.75,125.431-66.232c55.053-68.646,96.66-191.5,119.002-373.532
				c43.275-352.559,104.368-644.697,204.321-737.841c100.836-93.971,240.125,12.194,438.556,457.876
				c173.645,390.001,323.5,614.321,461.232,688.235v4.811c-139.266-73.487-290.36-298.756-465.139-691.303
				c-196.654-441.695-333.562-547.973-431.729-456.486c-99.059,92.311-159.819,383.546-202.983,735.227
				c-22.443,182.851-64.379,306.433-119.926,375.695c-37.359,46.578-80.894,68.691-128.833,67.823
				c-47.759-0.864-99.763-24.594-154.252-69.695c-123.836-102.506-261.014-315.836-390.794-622.327
				c-97.035-229.159-190.823-377.646-279.92-456.744c-57.509-51.056-113.006-73.114-166.09-69.232
				c-53.094,3.882-103.941,33.724-152.132,86.449c-80.587,88.168-153.646,240.169-217.343,441.784
				c-100.121,316.906-206.469,474.68-328.782,458.449c-121.901-16.175-259.009-205.985-420.985-584.257l-24.809-58.013
				c-141.146-330.299-241.121-564.239-357.52-628.121c-133.644-73.345-290.327,78.386-558.835,567.648
				c-206.17,375.667-297.231,481.422-396.211,427.101c-52.898-29.03-107.56-104.104-183.356-208.207
				c-136.864-187.975-342.858-470.89-730.94-747.092C797.879,684.658,339.688,785.69,0.322,979.169V974.225z"/>
		</defs>
		<clipPath id="SVGID_00000128458617070480707910000008434342366576208062_">
			<use xlink:href="#SVGID_00000062173850767927050670000004648000563639134367_"  style="overflow:visible;"/>
		</clipPath>
		
			<linearGradient id="SVGID_00000039124235456689618060000008931264261065433737_" gradientUnits="userSpaceOnUse" x1="175.114" y1="541.9521" x2="6937.417" y2="2671.4253">
			<stop  offset="0" style="stop-color:#021B8C"/>
			<stop  offset="1" style="stop-color:#FF00B2"/>
		</linearGradient>
		
			<rect x="0.322" y="680.556" style="clip-path:url(#SVGID_00000128458617070480707910000008434342366576208062_);fill:url(#SVGID_00000039124235456689618060000008931264261065433737_);" width="6999.359" height="1816.83"/>
	</g>
	<g>
		<defs>
			<path id="SVGID_00000145750757821489138680000008438713983732252601_" d="M0.322,991.733
				c334.948-197.435,785.895-300.538,1278.773,37.416c412.57,282.888,621.868,587.643,758.669,786.84
				c72.278,105.247,124.267,180.941,174.999,207.973c89.58,47.736,177.143-57.163,371.114-421.185
				c256.037-480.493,416.379-649.503,553.778-602.084c137.083,47.315,250.064,310.424,412.182,694.563
				c161.589,382.894,295.594,579.11,413.657,599.94c117.554,20.744,219.971-133.44,318.804-451.28
				c65.301-210.008,140.349-371.099,223.656-464.514c48.539-54.428,99.946-85.962,153.927-90.921
				c53.998-4.961,110.417,16.679,168.941,68.6c88.637,78.633,182.29,226.951,279.918,457.827
				c135.376,320.141,274.971,545.401,399.049,653.282c52.355,45.519,101.86,70.064,147.006,71.92
				c44.937,1.848,85.701-18.853,120.804-63.792c52.697-67.468,92.631-189.323,114.843-371.232
				c43.754-358.364,103.474-669.751,203.12-776.142c100.6-107.405,240.771-8.525,444.16,455.66
				c178.365,407.069,326.668,643.785,461.957,723.855v4.92c-136.819-79.553-286.32-317.269-465.878-727.067
				c-201.477-459.821-339.195-558.979-437.119-454.433c-98.87,105.562-158.322,416.13-201.983,773.726
				c-22.307,182.698-62.555,305.263-115.73,373.343c-36.016,46.109-77.978,67.341-124.341,65.436
				c-46.153-1.897-96.543-26.796-149.636-72.959c-124.555-108.298-264.559-334.11-400.191-654.858
				c-97.37-230.262-190.642-378.07-278.81-456.286c-57.583-51.087-112.919-72.397-165.724-67.545
				c-52.825,4.854-103.298,35.901-151.111,89.513c-82.89,92.944-157.644,253.496-222.769,462.938
				c-99.572,320.219-203.499,475.424-323.632,454.228c-119.621-21.106-254.658-218.158-416.859-602.502
				c-161.676-383.098-274.33-645.487-409.634-692.186c-134.988-46.587-293.807,121.87-548.615,600.058
				c-195.49,366.87-284.358,472.258-376.898,422.945c-51.668-27.531-103.903-103.583-176.524-209.33
				c-136.62-198.933-345.643-503.288-757.547-785.721C784.644,695.31,334.412,799.127,0.322,996.698V991.733z"/>
		</defs>
		<clipPath id="SVGID_00000049224114649725000040000001721286458761440407_">
			<use xlink:href="#SVGID_00000145750757821489138680000008438713983732252601_"  style="overflow:visible;"/>
		</clipPath>
		
			<linearGradient id="SVGID_00000101098966016566576800000018204207133954211980_" gradientUnits="userSpaceOnUse" x1="166.5863" y1="569.0392" x2="6928.8892" y2="2698.5125">
			<stop  offset="0" style="stop-color:#021B8C"/>
			<stop  offset="1" style="stop-color:#FF00B2"/>
		</linearGradient>
		
			<rect x="0.322" y="691.194" style="clip-path:url(#SVGID_00000049224114649725000040000001721286458761440407_);fill:url(#SVGID_00000101098966016566576800000018204207133954211980_);" width="6999.359" height="1855.098"/>
	</g>
	<g>
		<defs>
			<path id="SVGID_00000044896273976793154960000005146439963437717153_" d="M0.322,1008.436
				c329.762-201.152,772.929-306.792,1266.293,19.097c435.562,287.71,647.067,614.695,783.219,825.186
				c69.365,107.24,119.109,184.149,168.646,209.783c83.932,43.435,169.152-61.279,353.416-417.343
				c253.311-489.49,417.791-668.172,560.044-626.685c141.994,41.411,260.661,302.484,423.034,692.775
				c161.854,389.038,293.862,592.496,409.709,618.201c115.259,25.571,215.212-126.052,313.463-447.068
				c66.643-217.739,143.247-387.686,228.751-486.034c48.147-55.376,99.171-88.14,152.894-94.077
				c53.764-5.939,110.068,14.988,168.707,66.994c87.81,77.879,181.035,225.698,279.022,457.722
				c141.225,334.412,283.382,572.442,407.92,686.255c50.985,46.595,98.935,72.284,142.543,75.128
				c43.36,2.83,82.584-17.018,116.381-61.46c50.485-66.386,88.861-187.357,110.951-369.201
				c44.238-364.181,102.585-694.818,201.939-814.448c100.356-120.834,241.415-29.25,449.749,453.43
				c183.118,424.254,329.847,673.42,462.678,759.599v5.054c-134.361-85.562-282.235-335.777-466.618-762.957
				c-206.297-477.955-344.842-570.003-442.522-452.392c-98.678,118.816-156.812,448.716-200.969,812.216
				c-22.185,182.625-60.86,304.294-111.805,371.283c-34.739,45.682-75.203,66.077-120.053,63.151
				c-44.61-2.91-93.431-28.981-145.156-76.253c-124.989-114.225-267.516-352.771-408.977-687.743
				c-97.726-231.41-190.573-378.718-277.915-456.181c-57.667-51.143-112.86-71.743-165.406-65.938
				c-52.588,5.81-102.698,38.07-150.125,92.619c-85.102,97.884-161.427,267.298-227.898,484.475
				c-99.02,323.531-200.531,476.17-318.477,450.004c-117.351-26.037-250.317-230.324-412.742-620.733
				c-161.904-389.158-280.11-649.437-420.267-690.312c-139.907-40.802-302.89,137.281-555.048,624.54
				c-185.746,358.925-272.308,464.144-359.182,419.187c-50.542-26.154-100.548-103.463-170.272-211.259
				c-135.962-210.194-347.167-536.721-781.996-823.945C771.698,705.751,329.248,812.148,0.322,1013.476V1008.436z"/>
		</defs>
		<clipPath id="SVGID_00000070104227528484165790000008646413582313620400_">
			<use xlink:href="#SVGID_00000044896273976793154960000005146439963437717153_"  style="overflow:visible;"/>
		</clipPath>
		
			<linearGradient id="SVGID_00000152262009470687645450000006298511457739080116_" gradientUnits="userSpaceOnUse" x1="158.026" y1="596.207" x2="6920.3271" y2="2725.6797">
			<stop  offset="0" style="stop-color:#021B8C"/>
			<stop  offset="1" style="stop-color:#FF00B2"/>
		</linearGradient>
		
			<rect x="0.322" y="701.644" style="clip-path:url(#SVGID_00000070104227528484165790000008646413582313620400_);fill:url(#SVGID_00000152262009470687645450000006298511457739080116_);" width="6999.359" height="1893.926"/>
	</g>
	<g>
		<defs>
			<path id="SVGID_00000037678329187899128620000006401669206806358424_" d="M0.322,1024.041
				c324.661-204.431,760.373-312.089,1253.805,1.874c457.799,291.287,670.797,641.261,805.953,863.335
				c66.661,109.53,114.326,187.847,162.719,212.173c78.91,39.669,161.737-65,337.123-413.886
				c250.591-498.489,419.207-686.838,566.307-651.278c146.899,35.51,271.238,294.535,433.873,690.977
				c162.116,395.174,292.119,605.878,405.765,636.455c112.96,30.393,210.448-118.668,308.119-442.856
				c67.892-225.342,145.925-404.444,233.551-507.905c47.751-56.374,98.414-90.372,151.907-97.271
				c53.545-6.905,109.759,13.343,168.523,65.464c87.081,77.237,179.963,224.715,278.333,457.934
				c147.043,348.621,291.473,599.67,416.214,719.551c49.659,47.722,96.102,74.57,138.22,78.387
				c41.839,3.792,79.58-15.248,112.145-59.245c48.396-65.391,85.328-185.585,107.307-367.434
				c44.722-370.005,101.703-719.905,200.766-852.763c100.101-134.255,242.036-49.96,455.315,451.216
				c187.912,441.556,333.037,703.221,463.413,795.468v5.203c-131.877-91.5-278.096-354.277-467.354-798.994
				c-211.113-496.087-350.494-581.012-447.937-450.328c-98.486,132.084-155.3,481.304-199.947,850.699
				c-22.072,182.615-59.285,303.494-108.125,369.481c-33.528,45.3-72.562,64.889-115.969,60.953
				c-43.131-3.91-90.434-31.155-140.798-79.559c-125.156-120.278-269.92-371.822-417.19-720.976
				c-98.109-232.601-190.61-379.57-277.226-456.393c-57.772-51.241-112.85-71.169-165.155-64.425
				c-52.348,6.75-102.112,40.237-149.172,95.798c-87.225,102.985-164.988,281.562-232.716,506.36
				c-98.471,326.853-197.568,476.923-313.33,445.775c-115.076-30.961-245.963-242.487-408.617-638.97
				c-162.131-395.211-285.891-653.387-430.922-688.446c-144.82-35.008-311.97,152.699-561.478,649.029
				c-176.829,351.755-261.027,456.937-342.856,415.8c-49.514-24.889-97.441-103.635-164.467-213.766
				c-134.962-221.751-347.65-571.221-804.593-861.962C759.19,716.063,324.162,824.475,0.322,1029.108V1024.041z"/>
		</defs>
		<clipPath id="SVGID_00000177482358341637726870000005779647500834501769_">
			<use xlink:href="#SVGID_00000037678329187899128620000006401669206806358424_"  style="overflow:visible;"/>
		</clipPath>
		
			<linearGradient id="SVGID_00000095299861942003291600000010808158667708054970_" gradientUnits="userSpaceOnUse" x1="149.4439" y1="623.4688" x2="6911.7461" y2="2752.9419">
			<stop  offset="0" style="stop-color:#021B8C"/>
			<stop  offset="1" style="stop-color:#FF00B2"/>
		</linearGradient>
		
			<rect x="0.322" y="711.952" style="clip-path:url(#SVGID_00000177482358341637726870000005779647500834501769_);fill:url(#SVGID_00000095299861942003291600000010808158667708054970_);" width="6999.359" height="1933.237"/>
	</g>
	<g>
		<defs>
			<path id="SVGID_00000001637481281441034090000014663812023080205496_" d="M0.322,1038.831
				c319.675-207.341,748.135-316.778,1241.318-14.542c479.355,293.76,693.257,667.522,827.136,901.453
				c64.105,112.013,109.796,191.85,157.121,214.965c74.399,36.339,154.805-68.392,322.046-410.8
				c247.872-507.488,420.622-705.498,572.579-675.858c151.806,29.612,281.822,286.585,444.718,689.179
				c162.38,401.322,290.38,619.274,401.818,654.724c110.661,35.208,205.687-111.298,302.78-438.661
				c69.049-232.811,148.375-421.353,238.037-530.078c47.374-57.447,97.687-92.698,150.959-100.547
				c53.344-7.86,109.489,11.744,168.407,64.017c86.445,76.697,179.06,223.982,277.839,458.449
				c152.832,362.771,299.263,627.072,423.971,753.149c48.352,48.885,93.333,76.89,134.02,81.662
				c40.385,4.74,76.72-13.523,108.103-57.103c46.432-64.475,82.002-183.993,103.884-365.915
				c45.208-375.83,100.827-744.983,199.609-891.079c99.849-147.668,242.653-70.66,460.881,449.006
				c192.743,458.984,336.234,733.209,464.134,831.469v5.319c-129.393-97.383-273.916-372.731-468.093-835.127
				c-215.937-514.223-356.16-592.031-453.367-448.267c-98.275,145.343-153.765,513.892-198.907,889.181
				c-21.97,182.665-57.816,302.848-104.669,367.91c-32.384,44.972-70.053,63.794-112.062,58.863
				c-41.71-4.895-87.545-33.322-136.584-82.902c-125.08-126.454-271.813-391.225-424.86-754.506
				c-98.519-233.853-190.756-380.628-276.73-456.909c-57.892-51.364-112.875-70.652-164.953-62.979
				c-52.155,7.684-101.588,42.403-148.279,99.024c-89.266,108.248-168.337,296.275-237.232,528.567
				c-97.924,330.167-194.6,477.662-308.178,441.528c-112.811-35.888-241.624-254.64-404.501-657.188
				c-162.36-401.273-291.681-657.347-441.563-686.583c-149.738-29.208-321.053,168.129-567.905,673.532
				c-168.646,345.282-250.456,450.54-327.779,412.774c-48.509-23.691-94.474-104.008-158.962-216.69
				c-133.672-233.566-347.239-606.744-825.646-899.925C746.976,726.166,319.198,836.401,0.322,1043.983V1038.831z"/>
		</defs>
		<clipPath id="SVGID_00000101810712296319526150000009629080750339766698_">
			<use xlink:href="#SVGID_00000001637481281441034090000014663812023080205496_"  style="overflow:visible;"/>
		</clipPath>
		
			<linearGradient id="SVGID_00000173143567442913665150000000318062843672493966_" gradientUnits="userSpaceOnUse" x1="140.8402" y1="650.781" x2="6903.1455" y2="2780.2551">
			<stop  offset="0" style="stop-color:#021B8C"/>
			<stop  offset="1" style="stop-color:#FF00B2"/>
		</linearGradient>
		
			<rect x="0.322" y="722.053" style="clip-path:url(#SVGID_00000101810712296319526150000009629080750339766698_);fill:url(#SVGID_00000173143567442913665150000000318062843672493966_);" width="6999.359" height="1973.08"/>
	</g>
	<g>
		<defs>
			<path id="SVGID_00000092431394648517745020000015854276666851154819_" d="M0.322,1052.562
				c314.792-209.81,736.307-320.567,1228.841-29.896c500.342,295.282,714.632,693.611,846.983,939.634
				c61.67,114.636,105.485,196.078,151.745,218.035c70.328,33.38,148.324-71.489,308.076-408.055
				c245.159-516.495,422.045-724.164,578.844-700.44c156.714,23.713,292.398,278.63,455.555,687.382
				c162.637,407.446,288.636,632.642,397.877,672.978c108.369,40.017,200.932-103.934,297.44-434.455
				c97.115-332.586,214.198-584.855,353.266-644.811c139.599-60.182,300.674,72.474,484.905,510.271
				c158.595,376.87,306.76,654.645,431.205,787.031c47.077,50.078,90.648,79.25,129.972,84.971
				c38.979,5.669,73.963-11.849,104.23-55.059c44.571-63.632,78.875-182.557,100.67-364.614
				c45.687-381.652,99.95-770.058,198.465-929.4c99.587-161.067,243.252-91.349,466.415,446.799
				c197.622,476.551,339.454,763.387,464.87,867.602v5.456c-126.887-103.184-269.672-391.17-468.824-871.414
				c-220.768-532.374-361.834-603.059-458.819-446.199c-98.053,158.593-152.216,546.472-197.849,927.657
				c-21.878,182.77-56.445,302.344-101.424,366.558c-31.298,44.682-67.665,62.769-108.336,56.853
				c-40.334-5.868-84.739-35.482-132.487-86.275c-124.797-132.76-273.234-410.972-432.023-788.306
				c-183.025-434.931-342.09-567.131-479.27-507.992c-137.716,59.372-254.08,310.63-350.856,642.06
				c-97.377,333.498-191.632,478.422-303.023,437.292c-110.526-40.812-237.266-266.799-400.376-675.43
				c-162.587-407.323-297.468-661.301-452.216-684.716c-154.659-23.399-330.141,183.564-574.339,698.029
				c-161.12,339.451-240.539,444.858-313.774,410.098c-47.542-22.565-91.631-104.519-153.691-219.876
				c-132.132-245.62-346.073-643.302-845.39-937.977c-491.8-290.239-912.656-178.699-1226.66,31.37V1052.562z"/>
		</defs>
		<clipPath id="SVGID_00000181777147205914728530000000124192308745227426_">
			<use xlink:href="#SVGID_00000092431394648517745020000015854276666851154819_"  style="overflow:visible;"/>
		</clipPath>
		
			<linearGradient id="SVGID_00000098899143885653463300000003359647084565435055_" gradientUnits="userSpaceOnUse" x1="132.2201" y1="678.1517" x2="6894.5259" y2="2807.626">
			<stop  offset="0" style="stop-color:#021B8C"/>
			<stop  offset="1" style="stop-color:#FF00B2"/>
		</linearGradient>
		
			<rect x="0.322" y="731.994" style="clip-path:url(#SVGID_00000181777147205914728530000000124192308745227426_);fill:url(#SVGID_00000098899143885653463300000003359647084565435055_);" width="6999.359" height="2013.367"/>
	</g>
	<g>
		<defs>
			<path id="SVGID_00000174559798939911987790000014417045951104892348_" d="M0.322,1065.447
				c310.026-211.888,724.791-323.714,1216.352-44.399c520.871,295.968,735.098,719.662,865.706,977.978
				c59.324,117.331,101.328,200.406,146.548,221.267c66.608,30.73,142.214-74.336,295.065-405.644
				c242.444-525.494,423.467-742.824,585.119-725.008c161.623,17.814,302.977,270.669,466.391,685.568
				c162.9,413.592,286.897,646.04,393.928,691.256c106.07,44.811,196.168-96.586,292.095-430.268
				c96.529-335.784,212.361-599.511,351.292-667.715c139.527-68.494,301.648,59.155,489.815,506.794
				c187.409,445.828,355.706,762.259,488.553,870.378c131.242,106.808,227.789,7.051,273.616-377.515
				c46.175-387.488,99.083-795.157,197.328-967.73c99.321-174.463,243.847-112.023,471.948,444.605
				c202.549,494.272,342.676,793.743,465.601,903.848v5.649c-124.366-108.911-265.374-409.609-469.556-907.871
				c-225.599-550.521-367.515-614.079-464.271-444.12c-97.835,171.849-150.667,579.048-196.794,966.12
				c-46.473,389.999-145.529,490.233-280.573,380.33c-133.435-108.598-302.129-425.597-489.792-872.035
				c-186.901-444.621-346.944-571.895-483.998-504.613c-137.644,67.571-252.823,330.324-349.049,665.045
				c-96.83,336.824-188.666,479.175-297.88,433.037c-108.255-45.733-232.923-278.944-396.257-693.639
				c-162.82-413.388-303.269-665.277-462.868-682.868c-159.575-17.587-339.222,199.009-580.763,722.544
				c-154.182,334.191-231.23,439.811-300.748,407.738c-46.574-21.486-88.859-105.114-148.577-223.228
				c-130.388-257.879-344.251-680.856-863.993-976.185C723.69,745.845,309.582,858.501,0.322,1070.695V1065.447z"/>
		</defs>
		<clipPath id="SVGID_00000008860473678416836610000014240967616523983512_">
			<use xlink:href="#SVGID_00000174559798939911987790000014417045951104892348_"  style="overflow:visible;"/>
		</clipPath>
		
			<linearGradient id="SVGID_00000017515311353963905800000000140677629245321918_" gradientUnits="userSpaceOnUse" x1="114.5663" y1="734.2191" x2="6876.8711" y2="2863.6929">
			<stop  offset="0" style="stop-color:#021B8C"/>
			<stop  offset="1" style="stop-color:#FF00B2"/>
		</linearGradient>
		
			<rect x="0.322" y="741.734" style="clip-path:url(#SVGID_00000008860473678416836610000014240967616523983512_);fill:url(#SVGID_00000017515311353963905800000000140677629245321918_);" width="6999.359" height="2117.142"/>
	</g>
	<g>
		<defs>
			<path id="SVGID_00000004530450715096166710000016611658306264015031_" d="M0.322,1077.348
				c305.376-213.543,713.651-326.061,1203.866-57.917c540.995,295.919,754.766,745.77,883.435,1016.551
				c57.053,120.066,97.309,204.773,141.465,224.578c63.204,28.349,136.463-76.958,282.931-403.53
				c239.733-534.507,424.893-761.496,591.391-749.583c166.533,11.916,313.548,262.707,477.221,683.753
				c163.162,419.731,285.154,659.434,389.986,709.536c103.777,49.6,191.41-89.243,286.756-426.084
				c95.956-338.995,210.531-614.183,349.315-690.625c139.451-76.806,302.625,45.832,494.735,503.324
				c191.333,455.638,358.439,785.167,489.229,902.434c129.12,115.77,222.729,21.215,269.022-369.032
				c46.663-393.329,98.216-820.261,196.195-1006.073c99.059-187.853,244.446-132.691,477.485,442.418
				c207.528,512.145,345.914,824.321,466.326,940.247v5.877c-121.834-114.554-261.023-428.043-470.299-944.515
				c-230.43-568.663-373.188-625.095-469.723-442.032c-97.61,185.109-149.109,611.626-195.726,1004.58
				c-46.982,396.037-143.116,490.973-276.129,371.715c-131.345-117.762-298.786-447.795-490.339-903.957
				c-190.771-454.303-351.793-576.644-488.717-501.23c-137.584,75.78-251.576,350.025-347.25,688.029
				c-96.283,340.159-185.698,479.933-292.724,428.779c-105.978-50.649-228.57-291.086-392.134-711.849
				c-163.05-419.446-309.065-669.252-473.528-681.019c-164.495-11.769-348.311,214.459-587.187,747.051
				c-147.766,329.462-222.472,435.341-288.579,405.693c-45.608-20.455-86.144-105.755-143.593-226.655
				c-128.447-270.309-341.843-719.376-881.611-1014.624C712.592,755.409,304.947,868.732,0.322,1082.6V1077.348z"/>
		</defs>
		<clipPath id="SVGID_00000155117783860199811020000009043753460977531577_">
			<use xlink:href="#SVGID_00000004530450715096166710000016611658306264015031_"  style="overflow:visible;"/>
		</clipPath>
		
			<linearGradient id="SVGID_00000048471138367435756370000002393464709881252524_" gradientUnits="userSpaceOnUse" x1="105.555" y1="762.8334" x2="6867.8545" y2="2892.3054">
			<stop  offset="0" style="stop-color:#021B8C"/>
			<stop  offset="1" style="stop-color:#FF00B2"/>
		</linearGradient>
		
			<rect x="0.322" y="751.287" style="clip-path:url(#SVGID_00000155117783860199811020000009043753460977531577_);fill:url(#SVGID_00000048471138367435756370000002393464709881252524_);" width="6999.359" height="2160.939"/>
	</g>
	<g>
		<defs>
			<path id="SVGID_00000003083572347357665240000002651772241261972399_" d="M0.322,1088.357
				c300.852-214.791,702.847-327.723,1191.385-70.543c560.781,295.211,773.731,772.015,900.295,1055.407
				c54.835,122.781,93.387,209.096,136.487,227.891c60.051,26.187,131.001-79.403,271.555-401.71
				c237.024-543.513,426.318-780.156,597.667-774.141c171.447,6.019,324.129,254.737,488.056,681.931
				c163.421,425.872,283.407,672.828,386.029,727.814c101.487,54.38,186.663-81.911,281.423-421.898
				c95.381-342.207,208.703-628.854,347.343-713.529c139.37-85.119,303.585,32.504,499.638,499.847
				c195.253,465.436,361.168,808.058,489.915,934.488c127.002,124.717,217.668,35.363,264.43-360.552l4.465-37.839
				c58.258-494.069,123.245-1045.163,278.224-1107.294c93.843-37.625,219.722,102.783,395.388,540.952
				c212.562,530.198,349.174,855.156,467.058,976.824v6.104c-119.288-120.112-256.599-446.467-471.031-981.336
				c-174.506-435.281-298.403-575.223-389.825-538.57c-152.609,61.183-217.439,610.937-275.555,1103.805l-4.465,37.848
				c-47.493,402.099-140.704,491.739-271.687,363.11c-129.24-126.913-295.424-469.979-490.873-935.879
				c-194.646-463.99-356.655-581.4-493.449-497.852c-137.527,83.995-250.328,369.734-345.45,711.015
				c-95.741,343.502-182.725,480.703-287.56,424.529c-103.707-55.57-224.233-303.227-388.025-730.063
				c-163.282-425.514-314.866-673.236-484.183-679.18c-169.41-5.948-357.395,229.915-593.609,771.576
				c-141.818,325.2-214.229,431.38-277.187,403.924c-44.619-19.458-83.451-106.399-138.684-230.071
				c-126.341-282.883-338.908-758.833-898.385-1053.36c-487.912-256.85-889.277-143.063-1189.391,72.1V1088.357z"/>
		</defs>
		<clipPath id="SVGID_00000083785959828748640860000006506980432126641031_">
			<use xlink:href="#SVGID_00000003083572347357665240000002651772241261972399_"  style="overflow:visible;"/>
		</clipPath>
		
			<linearGradient id="SVGID_00000161600792055683828870000011969531770231149719_" gradientUnits="userSpaceOnUse" x1="96.5722" y1="791.3621" x2="6858.8774" y2="2920.8359">
			<stop  offset="0" style="stop-color:#021B8C"/>
			<stop  offset="1" style="stop-color:#FF00B2"/>
		</linearGradient>
		
			<rect x="0.322" y="760.634" style="clip-path:url(#SVGID_00000083785959828748640860000006506980432126641031_);fill:url(#SVGID_00000161600792055683828870000011969531770231149719_);" width="6999.359" height="2204.959"/>
	</g>
	<g>
		<defs>
			<path id="SVGID_00000003071814308568652920000002268274676967881376_" d="M0.322,1098.496
				c296.45-215.645,692.376-328.725,1178.9-82.3c580.308,293.93,792.109,798.477,916.405,1094.582
				c52.666,125.464,89.554,213.337,131.56,231.149c57.125,24.223,125.828-81.675,260.885-400.148
				c234.316-552.523,427.754-798.827,603.958-798.707c176.345,0.122,334.685,246.77,498.866,680.104
				c163.679,432.009,281.667,686.225,382.089,746.105c99.197,59.149,181.913-74.59,276.087-417.72
				c94.804-345.422,206.879-643.526,345.376-736.434c139.281-93.43,304.539,19.186,504.532,496.38
				c199.171,475.224,363.891,830.936,490.594,966.535c124.884,133.655,212.617,49.503,259.844-352.066l9.963-85.187
				c57.835-495.982,122.203-1047.953,276.49-1109.184c93.769-37.213,219.781,105.59,396.02,549.658
				c217.656,548.428,352.449,886.248,467.79,1013.581v6.291c-116.727-125.569-252.104-464.815-471.763-1018.297
				c-175.094-441.178-299.124-583.51-390.472-547.26c-151.9,60.286-216.113,610.916-273.809,1105.695l-9.963,85.188
				c-48.001,408.16-138.289,492.501-267.233,354.499c-127.131-136.058-292.069-492.162-491.418-967.809
				c-198.518-473.674-361.512-586.156-498.193-494.471c-137.458,92.211-249.068,389.446-343.635,734.005
				c-95.196,346.854-179.756,481.474-282.408,420.265c-101.428-60.479-219.879-315.355-383.901-748.263
				c-163.517-431.573-320.678-677.221-494.857-677.341c-174.325-0.118-366.471,245.379-600.018,796.093
				c-136.289,321.374-206.458,427.882-266.484,402.427c-43.637-18.504-80.797-107.03-133.857-233.428
				c-124.071-295.571-335.491-799.213-914.374-1092.42C691.372,773.901,296.049,887.797,0.322,1103.833V1098.496z"/>
		</defs>
		<clipPath id="SVGID_00000042706617831069896350000004844477345488997563_">
			<use xlink:href="#SVGID_00000003071814308568652920000002268274676967881376_"  style="overflow:visible;"/>
		</clipPath>
		
			<linearGradient id="SVGID_00000026879771279856904580000005385338892103360151_" gradientUnits="userSpaceOnUse" x1="87.6194" y1="819.7965" x2="6849.9243" y2="2949.2703">
			<stop  offset="0" style="stop-color:#021B8C"/>
			<stop  offset="1" style="stop-color:#FF00B2"/>
		</linearGradient>
		
			<rect x="0.322" y="769.771" style="clip-path:url(#SVGID_00000042706617831069896350000004844477345488997563_);fill:url(#SVGID_00000026879771279856904580000005385338892103360151_);" width="6999.359" height="2249.193"/>
	</g>
	<g>
		<defs>
			<path id="SVGID_00000158027142892735151220000014751356447769193345_" d="M0.322,1107.685
				c292.171-216.083,682.255-328.984,1166.423-93.104c599.584,292.112,809.939,825.22,931.826,1134.13
				c50.527,128.058,85.787,217.405,126.697,234.279c54.388,22.429,120.894-83.806,250.831-398.84
				c231.609-561.538,429.185-817.497,610.246-823.265c181.248-5.772,345.24,238.8,509.679,678.283
				c163.937,438.143,279.917,699.621,378.129,764.389c96.909,63.91,177.169-67.277,270.757-413.54
				c94.231-348.637,205.059-658.2,343.423-759.338c139.196-101.745,305.491,5.858,509.428,492.904
				c203.089,485.02,366.615,853.831,491.253,998.582c122.779,142.594,207.583,63.645,255.275-343.577
				c4.944-42.225,9.888-85.235,14.872-128.66c57.38-499.629,121.121-1054.613,275.08-1115.126
				c93.758-36.854,219.999,108.427,396.926,558.544l47.009,119.72c195.038,497.035,316.988,807.757,421.505,930.857v6.412
				c-106.07-121.714-228.611-433.972-425.498-935.711l-47.008-119.72c-175.781-447.21-300.048-592.01-391.378-556.11
				c-151.552,59.569-215.136,613.203-272.378,1111.62c-4.984,43.424-9.928,86.434-14.874,128.659
				c-48.513,414.229-135.866,493.271-262.768,345.889c-125.043-145.222-288.734-514.355-491.974-999.736
				c-202.392-483.356-366.378-590.913-502.939-491.093c-137.389,100.425-247.798,409.156-341.813,756.99
				c-94.655,350.205-176.786,482.254-277.246,416.004c-99.156-65.391-215.541-327.486-379.79-766.466
				c-163.75-437.637-326.485-681.203-505.537-675.502c-179.233,5.71-375.541,260.844-606.422,820.617
				c-131.136,317.939-199.114,424.801-256.414,401.17c-42.606-17.574-78.14-107.62-129.061-236.678
				c-121.661-308.334-331.626-840.449-929.715-1131.833C681.259,782.83,291.79,896.593,0.322,1113.109V1107.685z"/>
		</defs>
		<clipPath id="SVGID_00000142139094466439545220000014911099852388802442_">
			<use xlink:href="#SVGID_00000158027142892735151220000014751356447769193345_"  style="overflow:visible;"/>
		</clipPath>
		
			<linearGradient id="SVGID_00000103958686684549887960000001014463645002959498_" gradientUnits="userSpaceOnUse" x1="78.6966" y1="848.1418" x2="6841.0024" y2="2977.616">
			<stop  offset="0" style="stop-color:#021B8C"/>
			<stop  offset="1" style="stop-color:#FF00B2"/>
		</linearGradient>
		
			<rect x="0.322" y="778.701" style="clip-path:url(#SVGID_00000142139094466439545220000014911099852388802442_);fill:url(#SVGID_00000103958686684549887960000001014463645002959498_);" width="6999.359" height="2293.644"/>
	</g>
	<g>
		<defs>
			<path id="SVGID_00000183944518132012478670000013959519910723855016_" d="M0.322,1116.143
				c288.03-216.16,672.411-328.743,1153.934-103.171c618.706,289.835,827.323,852.284,946.659,1174.034
				c48.426,130.569,82.084,221.31,121.872,237.27c51.819,20.791,116.185-85.814,241.337-397.757
				c228.905-570.552,430.622-836.168,616.539-847.822c186.153-11.667,355.805,230.831,520.498,676.459
				c164.193,444.276,278.166,713.012,374.174,782.677c94.625,68.662,172.427-59.973,265.427-409.363
				c93.655-351.851,203.242-672.869,341.475-782.24c139.094-110.053,306.429-7.465,514.303,489.424
				c207.007,494.814,369.337,876.723,491.922,1030.64c120.667,151.51,202.543,77.759,250.702-335.099
				c6.456-55.342,12.828-111.849,19.276-169.056c56.897-504.659,120-1064.341,273.921-1124.292
				c93.807-36.532,220.361,111.293,398.076,567.58c33.214,85.288,64.38,165.88,93.714,241.753
				c172.151,445.227,281.481,727.945,375.532,845.965v6.637c-95.577-116.707-205.524-401.056-379.524-851.061
				c-29.333-75.873-60.496-156.464-93.714-241.753c-176.58-453.379-301.16-600.717-392.542-565.129
				c-151.493,59.005-214.447,617.332-271.205,1120.769c-6.476,57.464-12.879,114.221-19.276,169.073
				c-49.028,420.312-133.452,494.054-258.31,337.279c-122.942-154.366-285.393-536.535-492.528-1031.661
				c-206.266-493.048-371.247-595.674-507.698-487.716c-137.311,108.639-246.525,428.869-339.982,779.978
				c-94.115,353.576-173.818,483.048-272.084,411.744c-96.881-70.301-211.2-339.615-375.684-784.673
				c-163.983-443.703-332.294-685.188-516.203-673.661c-184.149,11.545-384.619,276.315-612.835,845.139
				c-126.318,314.855-192.161,422.102-246.902,400.14c-41.568-16.675-75.493-108.139-124.306-239.751
				c-119.118-321.157-327.35-882.574-944.445-1171.657C671.464,791.524,287.662,904.938,0.322,1121.552V1116.143z"/>
		</defs>
		<clipPath id="SVGID_00000130638674523086696240000003009845849325785766_">
			<use xlink:href="#SVGID_00000183944518132012478670000013959519910723855016_"  style="overflow:visible;"/>
		</clipPath>
		
			<linearGradient id="SVGID_00000061441458813389148920000007007701806546684050_" gradientUnits="userSpaceOnUse" x1="69.8005" y1="876.3859" x2="6832.1016" y2="3005.8584">
			<stop  offset="0" style="stop-color:#021B8C"/>
			<stop  offset="1" style="stop-color:#FF00B2"/>
		</linearGradient>
		
			<rect x="0.322" y="787.4" style="clip-path:url(#SVGID_00000130638674523086696240000003009845849325785766_);fill:url(#SVGID_00000061441458813389148920000007007701806546684050_);" width="6999.359" height="2338.336"/>
	</g>
	<g>
		<defs>
			<path id="SVGID_00000115510246998722540040000008430318090118774444_" d="M0.322,1123.576
				C284.328,907.76,663.26,795.887,1141.775,1011.354c637.649,287.119,844.263,879.74,960.924,1214.367
				c46.349,132.946,78.436,224.971,117.091,240.058c49.396,19.278,111.687-87.702,232.359-396.889
				c226.201-579.566,432.058-854.834,622.835-872.372c191.052-17.56,366.356,222.857,531.304,674.629
				c164.45,450.411,276.411,726.408,370.213,800.972c92.343,73.403,167.694-52.682,260.107-405.193
				c93.085-355.074,201.427-687.551,339.529-805.147c139.001-118.359,307.364-20.79,519.18,485.95l41.754,99.979
				c252.415,604.637,429.695,1029.289,548.356,1043.075c66.122,7.679,114.603-114.3,148.606-406.976
				c7.795-67.112,15.461-136.512,23.238-206.952c56.399-510.83,118.867-1076.597,272.981-1136.098
				c93.91-36.257,220.856,114.176,399.446,576.744c49.315,127.728,93.744,244.691,134.321,351.527
				c152.521,401.549,250.811,660.293,335.661,773.552v6.864c-86.351-112.008-185.295-372.47-339.667-778.906
				c-40.74-107.261-85.342-224.683-134.306-351.496c-177.47-459.668-302.439-609.609-393.914-574.294
				c-151.682,58.563-214.002,622.971-270.266,1132.574c-7.795,70.613-15.478,140.186-23.236,206.969
				c-34.351,295.66-84.421,418.755-153.349,410.749c-121.167-14.076-298.847-439.688-551.829-1045.689l-41.754-99.979
				c-210.139-502.734-376.116-600.433-512.457-484.34c-137.239,116.863-245.252,448.586-338.154,802.965
				c-93.573,356.941-170.843,483.838-266.915,407.472c-94.607-75.205-206.857-351.733-371.572-802.865
				c-164.218-449.77-338.11-689.183-526.892-671.831c-189.052,17.379-393.684,291.788-619.229,869.672
				c-121.813,312.103-185.576,419.746-237.909,399.323c-40.485-15.802-72.836-108.588-119.571-242.641
				c-116.444-333.996-322.667-925.501-958.646-1211.869C661.996,800.018,283.655,912.765,0.322,1129.076V1123.576z"/>
		</defs>
		<clipPath id="SVGID_00000073708886284459056560000014564448914109125276_">
			<use xlink:href="#SVGID_00000115510246998722540040000008430318090118774444_"  style="overflow:visible;"/>
		</clipPath>
		
			<linearGradient id="SVGID_00000046323467692916615980000009818187811896155524_" gradientUnits="userSpaceOnUse" x1="71.8343" y1="869.9247" x2="6834.1353" y2="2999.3972">
			<stop  offset="0" style="stop-color:#021B8C"/>
			<stop  offset="1" style="stop-color:#FF00B2"/>
		</linearGradient>
		
			<rect x="0.322" y="795.887" style="clip-path:url(#SVGID_00000073708886284459056560000014564448914109125276_);fill:url(#SVGID_00000046323467692916615980000009818187811896155524_);" width="6999.359" height="2307.159"/>
	</g>
	<g>
		<defs>
			<path id="SVGID_00000123399694567020937900000017003708877339201939_" d="M0.322,1130.473
				C280.449,915.3,654.005,804.122,1129.289,1009.747c656.509,284.029,860.853,907.62,974.719,1255.115
				c44.301,135.195,74.837,228.384,112.317,242.615c47.114,17.889,107.384-89.492,223.85-396.208
				c146.169-384.935,286.487-639.944,420.717-776.833c78.101-79.649,154.234-119.411,228.343-121.584
				c74.159-2.176,146.119,33.275,215.835,104.029c107.358,108.97,209.531,301.895,306.346,570.255
				c164.709,456.546,274.659,739.811,366.247,819.27c90.066,78.137,162.972-45.396,254.793-401.024
				c92.513-358.305,199.612-702.24,337.581-828.057c138.902-126.672,308.302-34.111,524.059,482.48
				c34.396,82.355,68.011,163.503,100.225,241.275c227.424,549.042,384.791,928.941,491.832,941.328
				c62.856,7.272,108.994-114.297,142.752-405.991c9.046-78.178,17.853-159.778,26.812-242.789
				c55.889-517.941,117.719-1090.934,272.24-1150.094c94.054-36.013,221.459,117.076,401.021,586.053
				c63.911,166.931,120.072,317.834,169.893,451.722c135.548,364.246,224.105,602.202,300.809,710.944v7.098
				c-78.182-107.568-167.417-347.325-304.816-716.549c-49.636-133.386-105.586-283.722-169.896-451.692
				c-178.442-466.063-303.874-618.647-395.488-583.568c-152.07,58.222-213.752,629.838-269.506,1146.536
				c-8.985,83.27-17.818,165.123-26.811,242.823c-34.103,294.679-81.812,417.364-147.496,409.764
				c-109.542-12.677-267.305-393.532-495.303-943.959c-31.789-76.745-64.959-156.815-100.225-241.257
				c-214.013-512.415-380.988-605.193-517.219-480.957c-137.167,125.089-243.98,468.309-336.323,825.954
				c-93.034,360.312-167.869,484.628-261.733,403.195c-92.339-80.111-202.529-363.856-367.474-821.063
				c-96.604-267.77-198.454-460.175-305.374-568.698c-68.851-69.88-139.758-104.895-212.666-102.755
				c-72.963,2.142-148.113,41.485-225.408,120.31c-133.813,136.462-273.807,390.978-419.759,775.343
				c-117.579,309.646-179.324,417.71-229.369,398.707c-39.402-14.96-70.202-108.948-114.88-245.297
				c-113.651-346.841-317.61-969.26-972.34-1252.519C652.787,808.251,279.785,920.261,0.322,1135.944V1130.473z"/>
		</defs>
		<clipPath id="SVGID_00000117677785801127319210000002148557893748181668_">
			<use xlink:href="#SVGID_00000123399694567020937900000017003708877339201939_"  style="overflow:visible;"/>
		</clipPath>
		
			<linearGradient id="SVGID_00000115485592197077883020000000252791832636654771_" gradientUnits="userSpaceOnUse" x1="63.3144" y1="896.9693" x2="6825.6196" y2="3026.4434">
			<stop  offset="0" style="stop-color:#021B8C"/>
			<stop  offset="1" style="stop-color:#FF00B2"/>
		</linearGradient>
		
			<rect x="0.322" y="804.122" style="clip-path:url(#SVGID_00000117677785801127319210000002148557893748181668_);fill:url(#SVGID_00000115485592197077883020000000252791832636654771_);" width="6999.359" height="2350.144"/>
	</g>
	<g>
		<defs>
			<path id="SVGID_00000026885026165220160730000006962277390439489977_" d="M0.322,1136.253
				C276.678,922.16,645.138,812.15,1116.812,1008.129c675.266,280.572,877.087,935.974,988.044,1296.305
				c42.274,137.283,71.291,231.513,107.584,244.923c44.94,16.602,103.245-91.194,215.761-395.717
				c146.121-395.479,289.249-658.207,427.372-799.134c79.202-80.81,156.849-121.668,232.544-124.616
				c75.752-2.951,149.39,32.054,220.533,102.95c108.8,108.424,211.889,300.992,307.899,570.288
				c164.962,462.674,272.903,753.207,362.277,837.562c87.787,82.856,158.241-38.128,249.473-396.86
				c91.94-361.516,197.805-716.905,335.652-850.955c138.802-134.976,309.229-47.433,528.925,479.006
				c52.821,126.571,102.633,248.353,149.139,362.054c206.313,504.407,347.282,849.062,444.516,860.272
				c59.768,6.89,103.718-114.347,137.246-405.18c10.198-88.449,20.028-181.791,30.047-276.941
				c55.367-525.833,116.567-1106.977,271.646-1165.883c94.25-35.799,222.168,119.984,402.777,595.466
				c78.297,206.135,144.349,387.72,201.318,544.351c120.755,331.986,200.675,551.703,270.116,656.138v7.365
				c-70.908-103.326-151.53-324.945-274.141-662.044c-56.947-156.563-122.969-338.068-201.303-544.3
				c-179.496-472.563-305.448-627.84-397.255-592.969c-152.613,57.966-213.666,637.729-268.902,1162.312
				c-10.046,95.427-19.906,189.035-30.044,276.989c-33.876,293.816-79.376,416.171-141.99,408.952
				c-99.741-11.499-241.101-357.11-447.987-862.919c-46.164-112.868-95.614-233.759-149.139-362.02
				c-217.888-522.106-385.859-609.955-521.985-477.581c-137.082,133.305-242.688,488.025-334.477,848.941
				c-92.494,363.702-164.897,485.443-256.565,398.925c-90.073-85.016-198.201-375.97-363.381-839.258
				c-95.797-268.691-198.544-460.72-306.877-568.678c-70.274-70.033-142.859-104.612-217.367-101.711
				c-74.56,2.904-151.237,43.342-229.643,123.342c-137.691,140.489-280.489,402.708-426.396,797.61
				c-113.601,307.459-173.376,415.958-221.267,398.266c-38.278-14.143-67.55-109.201-110.195-247.69
				c-110.746-359.646-312.185-1013.804-985.599-1293.606C643.926,816.287,276.032,927.177,0.322,1141.819V1136.253z"/>
		</defs>
		<clipPath id="SVGID_00000128461631678000540430000014912354513903393418_">
			<use xlink:href="#SVGID_00000026885026165220160730000006962277390439489977_"  style="overflow:visible;"/>
		</clipPath>
		
			<linearGradient id="SVGID_00000097484229186153434680000012925340013245038722_" gradientUnits="userSpaceOnUse" x1="54.7998" y1="924.0096" x2="6817.1011" y2="3053.4824">
			<stop  offset="0" style="stop-color:#021B8C"/>
			<stop  offset="1" style="stop-color:#FF00B2"/>
		</linearGradient>
		
			<rect x="0.322" y="812.15" style="clip-path:url(#SVGID_00000128461631678000540430000014912354513903393418_);fill:url(#SVGID_00000097484229186153434680000012925340013245038722_);" width="6999.359" height="2393.531"/>
	</g>
	<g>
		<defs>
			<path id="SVGID_00000139290273114439207530000003784996774968211870_" d="M0.322,1141.7
				c272.733-212.787,636.093-321.808,1104.001-135.185c693.985,276.795,893.034,964.831,1000.971,1337.942
				c40.269,139.201,67.794,234.337,102.879,246.95c42.871,15.413,99.275-92.814,208.064-395.402
				c145.99-406.055,291.986-676.579,434.06-821.576c80.326-81.976,159.486-123.93,236.76-127.651
				c77.341-3.725,152.641,30.831,225.19,101.867c110.208,107.905,214.183,300.183,309.431,570.458
				c165.219,468.816,271.145,766.62,358.31,855.877c85.51,87.565,153.521-30.869,244.159-392.7
				c91.371-364.743,195.998-731.591,333.721-873.865c138.697-143.281,310.153-60.75,533.788,475.534
				c69.736,167.232,133.154,324.868,190.845,468.271c188.143,467.672,315.3,783.742,404.087,793.941
				c56.844,6.528,98.741-114.441,132.062-404.528c11.259-98.028,22.007-202.725,32.979-309.652
				c54.839-534.385,115.403-1124.495,271.184-1183.217c94.479-35.613,222.982,122.901,404.699,604.972
				c91.88,243.738,166.555,454.235,229.221,630.882c107.789,303.844,180.005,507.393,242.948,607.685v7.658
				c-64.392-99.253-137.333-304.822-246.985-613.917c-62.651-176.601-137.307-387.04-229.191-630.797
				c-180.619-479.158-307.145-637.168-399.18-602.475c-153.308,57.788-213.729,646.512-268.438,1179.646
				c-10.997,107.15-21.765,212.068-32.979,309.699c-33.664,293.067-77.098,415.156-136.805,408.3
				c-91.322-10.489-218.864-327.518-407.576-796.606c-57.635-143.263-120.99-300.749-190.829-468.219
				c-221.762-531.795-390.738-614.712-526.763-474.195c-136.997,141.523-241.4,507.74-332.63,871.921
				c-91.956,367.092-161.92,486.258-251.385,394.644c-87.811-89.919-193.87-388.078-359.28-857.435
				c-95.032-269.659-198.659-461.389-308.392-568.831c-71.662-70.167-145.897-104.309-221.99-100.643
				c-76.164,3.667-154.369,45.203-233.908,126.375c-141.65,144.564-287.314,414.571-433.086,820.019
				c-109.844,305.517-167.707,414.46-213.532,397.985c-37.143-13.353-64.915-109.341-105.546-249.786
				c-107.732-372.406-306.405-1059.141-998.437-1335.157C635.252,824.028,272.422,933.88,0.322,1147.227V1141.7z"/>
		</defs>
		<clipPath id="SVGID_00000044858496143521450420000002521720362618792886_">
			<use xlink:href="#SVGID_00000139290273114439207530000003784996774968211870_"  style="overflow:visible;"/>
		</clipPath>
		
			<linearGradient id="SVGID_00000040539782166296672260000014682776086638463414_" gradientUnits="userSpaceOnUse" x1="46.3037" y1="951.0008" x2="6808.6084" y2="3080.4746">
			<stop  offset="0" style="stop-color:#021B8C"/>
			<stop  offset="1" style="stop-color:#FF00B2"/>
		</linearGradient>
		
			<rect x="0.322" y="819.892" style="clip-path:url(#SVGID_00000044858496143521450420000002521720362618792886_);fill:url(#SVGID_00000040539782166296672260000014682776086638463414_);" width="6999.359" height="2437.381"/>
	</g>
	<g>
		<defs>
			<path id="SVGID_00000170977238158034951620000005480484624803934345_" d="M0.322,1146.017
				c269.214-211.055,627.758-318.585,1091.521-141.12c712.675,272.714,908.702,994.248,1013.514,1380.049
				c38.289,140.933,64.342,236.826,98.192,248.669c40.897,14.306,95.448-94.364,200.718-395.239
				c145.775-416.646,294.692-695.041,440.802-844.158c81.466-83.145,162.142-126.194,240.986-130.689
				c78.918-4.5,155.856,29.607,229.784,100.77c111.6,107.425,216.441,299.488,310.967,570.794l20.743,59.565
				c181.336,520.799,286.174,821.879,375.635,843.953c64.549,15.928,122.254-115.733,196.809-417.877
				c90.8-367.97,194.194-746.274,331.793-896.771c138.594-151.583,311.074-74.067,538.648,472.06
				c85.09,204.204,160.275,394.82,226.937,563.837c172.268,436.771,287.564,729.091,368.977,738.407
				c54.068,6.187,94.044-114.578,127.172-404.027c12.262-107.131,23.822-222.803,35.645-341.139
				c54.309-543.508,114.241-1143.261,270.85-1201.865c94.745-35.455,223.865,125.827,406.765,614.583
				c104.88,280.269,187.018,518.126,254.119,712.439c96.372,279.083,161.676,468.185,218.783,564.473v7.965
				c-58.533-95.32-124.584-286.571-222.823-571.047c-67.053-194.183-149.135-431.875-254.085-712.336
				c-181.81-485.84-308.967-646.607-401.265-612.068c-154.11,57.668-213.906,656.031-268.086,1198.278
				c-11.847,118.591-23.431,234.515-35.643,341.204c-33.471,292.432-74.967,414.314-131.915,407.799
				c-83.969-9.611-199.649-302.896-372.483-741.107c-66.652-168.987-141.822-359.569-226.903-563.751
				c-225.641-541.487-395.619-619.48-531.542-470.82c-136.916,149.752-240.114,527.462-330.784,894.909
				c-75.261,305.004-134.4,437.69-201.989,421.013c-91.716-22.629-196.831-324.514-378.652-846.703l-20.743-59.565
				c-94.3-270.663-198.779-462.16-309.895-569.116c-73.035-70.306-148.904-104.01-226.582-99.581
				c-77.75,4.434-157.479,47.062-238.171,129.415c-145.676,148.675-294.256,426.539-439.815,842.566
				c-106.296,303.807-162.301,413.214-206.164,397.869c-35.994-12.593-62.287-109.362-100.925-251.583
				c-104.612-385.072-300.27-1105.234-1010.895-1377.165C626.943,831.589,268.915,939.932,0.322,1151.568V1146.017z"/>
		</defs>
		<clipPath id="SVGID_00000047060819002404018330000004331498508755164585_">
			<use xlink:href="#SVGID_00000170977238158034951620000005480484624803934345_"  style="overflow:visible;"/>
		</clipPath>
		
			<linearGradient id="SVGID_00000060731036940236895180000008688928754144660866_" gradientUnits="userSpaceOnUse" x1="37.8102" y1="977.9796" x2="6800.1143" y2="3107.4531">
			<stop  offset="0" style="stop-color:#021B8C"/>
			<stop  offset="1" style="stop-color:#FF00B2"/>
		</linearGradient>
		
			<rect x="0.322" y="827.432" style="clip-path:url(#SVGID_00000047060819002404018330000004331498508755164585_);fill:url(#SVGID_00000060731036940236895180000008688928754144660866_);" width="6999.359" height="2481.607"/>
	</g>
	<g>
		<defs>
			<path id="SVGID_00000183967077782059706180000015064809138720571278_" d="M0.322,1150.089
				c265.836-209.139,619.543-315.405,1079.043-146.801c731.354,268.352,924.11,1024.245,1025.697,1422.625
				c36.328,142.459,60.934,238.949,93.54,250.051c39.002,13.281,91.751-95.848,193.689-395.219
				c145.481-427.254,297.385-713.596,447.595-866.872c82.625-84.312,164.82-128.455,245.227-133.723
				c80.487-5.275,159.047,28.386,234.329,99.669c112.977,106.98,218.666,298.885,312.5,571.262
				c16.333,47.42,32.055,93.208,47.191,137.309c166.762,485.797,263.396,767.279,346.528,787.486
				c61.636,14.981,117.081-115.958,190.181-416.688c90.23-371.204,192.388-760.973,329.858-919.681
				c138.488-159.885,312-87.383,543.511,468.59c99.329,238.538,184.708,459.936,258.515,651.336
				c158.233,410.332,263.209,682.541,338.106,691.082c51.431,5.865,89.609-114.752,122.56-403.665
				c13.201-115.754,25.489-242.12,38.073-371.601c53.771-553.117,113.069-1163.091,270.598-1221.628
				c95.052-35.322,224.845,128.756,408.983,624.272c117.51,316.226,206.013,580.005,276.429,789.895
				c86.277,257.146,145.369,433.269,197.204,525.675v8.285c-53.266-91.516-113.126-269.909-201.259-532.603
				c-70.402-209.843-158.886-473.564-276.385-789.758c-183.055-492.606-310.882-656.167-403.479-621.757
				c-155.023,57.606-214.187,666.177-267.834,1218.023c-12.613,129.76-24.925,256.4-38.073,371.682
				c-33.292,291.898-72.973,413.633-127.303,407.438c-77.467-8.836-182.817-282.01-341.61-693.799
				c-73.76-191.271-159.082-412.519-258.482-651.233c-229.513-551.175-400.498-624.24-536.317-467.435
				c-136.84,157.984-238.828,547.186-328.936,917.888c-73.795,303.594-130.662,435.564-195.344,419.842
				c-85.427-20.765-182.336-303.059-349.579-790.254c-15.136-44.1-30.858-89.89-47.193-137.309
				c-93.603-271.717-198.923-463.046-311.395-569.55c-74.379-70.429-151.859-103.692-231.108-98.498
				c-79.326,5.198-160.586,48.92-242.446,132.449c-149.769,152.825-301.321,438.618-446.592,865.245
				c-102.94,302.313-157.135,412.197-199.117,397.902c-34.818-11.856-59.655-109.253-96.325-253.05
				c-101.396-397.625-293.785-1152.084-1023.014-1419.656C618.747,838.841,265.551,945.92,0.322,1155.662V1150.089z"/>
		</defs>
		<clipPath id="SVGID_00000011721223584433807730000009526693820476237988_">
			<use xlink:href="#SVGID_00000183967077782059706180000015064809138720571278_"  style="overflow:visible;"/>
		</clipPath>
		
			<linearGradient id="SVGID_00000046300888656319885910000010411577812432925833_" gradientUnits="userSpaceOnUse" x1="29.3304" y1="1004.8998" x2="6791.6357" y2="3134.3738">
			<stop  offset="0" style="stop-color:#021B8C"/>
			<stop  offset="1" style="stop-color:#FF00B2"/>
		</linearGradient>
		
			<rect x="0.322" y="834.685" style="clip-path:url(#SVGID_00000011721223584433807730000009526693820476237988_);fill:url(#SVGID_00000046300888656319885910000010411577812432925833_);" width="6999.359" height="2526.283"/>
	</g>
	<g>
		<defs>
			<path id="SVGID_00000038376523203177739990000009475615958624050064_" d="M0.322,1153.141
				C262.871,946.3,611.988,841.736,1066.88,1001.683c750.044,263.73,939.281,1054.866,1037.543,1465.687
				c34.389,143.768,57.576,240.694,88.935,251.085c37.182,12.321,88.183-97.277,186.958-395.339
				c145.115-437.88,300.052-732.239,454.432-889.714c83.802-85.479,167.514-130.715,249.476-136.757
				c82.045-6.049,162.203,27.161,238.809,98.56c114.337,106.562,220.864,298.374,314.036,571.869
				c24.709,72.537,48.432,142.771,70.794,208.983c153.569,454.714,242.712,718.65,320.035,737.163
				c58.823,14.085,112.104-116.19,183.793-415.574c89.665-374.436,190.59-775.668,327.938-942.595
				c138.383-168.187,312.915-100.696,548.362,465.122c112.846,271.182,207.025,521.555,286.431,732.653
				c145.701,387.346,241.577,642.221,310.636,650.07c48.936,5.559,85.423-114.958,118.207-403.427
				c14.081-123.863,27.018-260.73,40.291-401.178c53.227-563.149,111.903-1183.845,270.445-1242.365
				c95.381-35.206,225.891,131.687,411.322,634.052c129.711,351.413,223.651,640.099,296.485,863.93
				c77.31,237.594,130.802,401.968,177.873,490.606v8.636c-48.49-87.814-102.773-254.599-181.946-497.917
				c-72.804-223.747-166.71-512.325-296.437-863.779c-184.353-499.437-312.896-665.804-405.823-631.503
				c-156.014,57.588-214.556,676.877-267.662,1238.743c-13.293,140.641-26.249,277.696-40.291,401.242
				c-33.127,291.462-71.093,413.107-122.931,407.217c-71.681-8.147-167.921-263.994-314.179-652.817
				c-79.387-211.053-173.548-461.374-286.379-732.52c-233.388-560.866-405.377-629.005-541.1-464.05
				c-136.755,166.208-237.534,566.906-327.084,940.864c-72.376,302.251-127.05,433.565-188.938,418.746
				c-79.631-19.068-169.052-283.827-323.105-739.966c-22.037-65.249-45.406-134.447-70.794-208.965
				c-92.938-272.809-199.075-464.028-312.898-570.11c-75.7-70.551-154.775-103.376-235.59-97.419
				c-80.895,5.963-163.683,50.776-246.726,135.483c-153.92,157.007-308.503,450.808-453.409,888.057
				c-99.755,301.013-152.196,411.384-192.373,398.069c-33.617-11.141-57.029-109.008-91.751-254.171
				c-98.077-410.045-286.956-1199.683-1034.793-1462.636C610.922,845.893,262.276,951.212,0.322,1158.66V1153.141z"/>
		</defs>
		<clipPath id="SVGID_00000003078688525104467100000008014028652561615266_">
			<use xlink:href="#SVGID_00000038376523203177739990000009475615958624050064_"  style="overflow:visible;"/>
		</clipPath>
		
			<linearGradient id="SVGID_00000049944783808756242360000014382321759049607065_" gradientUnits="userSpaceOnUse" x1="20.8577" y1="1031.7954" x2="6783.1577" y2="3161.2678">
			<stop  offset="0" style="stop-color:#021B8C"/>
			<stop  offset="1" style="stop-color:#FF00B2"/>
		</linearGradient>
		
			<rect x="0.322" y="841.736" style="clip-path:url(#SVGID_00000003078688525104467100000008014028652561615266_);fill:url(#SVGID_00000049944783808756242360000014382321759049607065_);" width="6999.359" height="2571.308"/>
	</g>
	<g>
		<defs>
			<path id="SVGID_00000138568897986561258200000013578813276636108718_" d="M0.322,1155.922
				c259.401-204.378,603.905-307.432,1054.076-155.849c768.78,258.866,954.242,1086.152,1049.089,1509.241
				c32.475,144.86,54.268,242.062,84.353,251.763c35.434,11.429,84.732-98.646,180.512-395.59
				c144.677-448.534,302.704-750.984,461.305-912.685c84.991-86.649,170.224-132.974,253.725-139.787
				c83.59-6.821,165.328,25.937,243.248,97.449c115.68,106.169,223.022,297.944,315.566,572.598
				c33.109,98.251,63.686,190.46,91.914,275.583c141.563,426.9,223.838,675.004,295.797,691.979
				c56.109,13.237,107.301-116.426,177.626-414.528c89.09-377.658,188.784-790.34,326.023-965.505
				c138.273-176.484,313.829-114.006,553.215,461.653c125.684,302.241,227.522,580.356,311.281,809.107
				c134.413,367.097,222.19,606.818,286.008,614.047c46.548,5.272,81.442-115.199,114.078-403.32
				c14.92-131.704,28.433-278.818,42.318-429.981c52.683-573.538,110.726-1205.391,270.351-1263.934
				c95.743-35.114,227.007,134.618,413.78,643.886c141.625,386.158,240.125,698.812,314.57,935.106
				c69.271,219.876,117.688,373.553,160.523,458.638v9.257c-44.092-84.081-93.337-240.375-164.615-466.62
				c-74.416-236.213-172.887-548.764-314.503-934.904c-185.702-506.345-314.996-675.547-408.277-641.336
				c-157.097,57.614-215.009,688.044-267.571,1260.295c-13.905,151.381-27.441,298.709-42.32,430.063
				c-32.974,291.114-69.33,412.714-118.802,407.109c-66.467-7.528-154.604-248.231-289.567-616.827
				c-83.756-228.741-185.585-506.848-311.21-808.94c-237.27-570.563-410.264-633.771-545.889-460.666
				c-136.659,174.422-236.227,586.62-325.217,963.849c-71.004,300.985-123.578,431.694-182.774,417.729
				c-74.285-17.523-156.836-266.468-298.88-694.812c-28.097-84.735-58.539-176.525-91.912-275.57
				c-92.306-273.942-199.252-465.112-314.413-570.805c-76.998-70.665-157.646-103.045-240.012-96.324
				c-82.454,6.729-166.77,52.629-251.008,138.512c-158.15,161.241-315.818,463.116-460.283,910.994
				c-96.73,299.888-147.453,410.752-185.894,398.354c-32.414-10.452-54.427-108.62-87.22-254.913
				c-94.669-422.291-279.783-1248.013-1046.268-1506.108C603.167,852.645,259.14,956.497,0.322,1161.516V1155.922z"/>
		</defs>
		<clipPath id="SVGID_00000090283268511870539490000004842077754301568945_">
			<use xlink:href="#SVGID_00000138568897986561258200000013578813276636108718_"  style="overflow:visible;"/>
		</clipPath>
		
			<linearGradient id="SVGID_00000102503801155403268730000017344095064060957075_" gradientUnits="userSpaceOnUse" x1="12.4153" y1="1058.6229" x2="6774.7212" y2="3188.0972">
			<stop  offset="0" style="stop-color:#021B8C"/>
			<stop  offset="1" style="stop-color:#FF00B2"/>
		</linearGradient>
		
			<rect x="0.322" y="848.49" style="clip-path:url(#SVGID_00000090283268511870539490000004842077754301568945_);fill:url(#SVGID_00000102503801155403268730000017344095064060957075_);" width="6999.359" height="2616.771"/>
	</g>
	<g>
		<defs>
			<path id="SVGID_00000006708947877260665980000015179972249432103859_" d="M0.322,1157.828
				c256.338-201.604,596.437-302.805,1041.6-159.364c787.561,253.769,968.993,1118.133,1060.333,1553.292
				c30.586,145.709,51.011,243.012,79.811,252.054c33.748,10.594,81.391-99.974,174.313-395.953
				c144.164-459.192,305.337-769.801,468.232-935.771c86.188-87.812,172.931-135.223,257.974-142.806
				c85.13-7.592,168.429,24.711,247.628,96.324c117.022,105.811,225.168,297.601,317.114,573.446
				c41.202,123.61,77.78,236.157,110.844,337.903c130.589,401.85,206.556,635.594,273.526,651.158
				c53.492,12.43,102.686-116.667,171.686-413.56l0.32-1.38c107.816-463.904,230.409-991.378,420.016-1070.176
				c122.363-50.85,271.84,84.147,461.833,541.324c137.959,331.965,246.468,636.947,333.545,881.706
				c124.178,349.029,204.693,575.323,263.751,581.99c44.273,4.998,77.663-115.469,110.164-403.328
				c15.714-139.208,29.745-296.387,44.173-458.095c52.133-584.255,109.55-1227.653,270.338-1286.257
				c96.127-35.036,228.171,137.556,416.338,653.797c153.241,420.439,255.523,756.326,330.889,1003.827
				c62.17,204.163,106,348.087,144.932,429.594v9.671c-40.17-80.565-84.85-227.281-149.024-438.026
				c-75.333-247.391-177.566-583.129-330.826-1003.607c-187.095-513.315-317.184-685.373-410.854-651.232
				c-158.229,57.672-215.517,699.645-267.538,1282.601c-14.45,161.948-28.498,319.359-44.173,458.194
				c-32.837,290.853-67.669,412.448-114.888,407.117c-61.729-6.969-142.597-234.26-267.322-584.823
				c-87.052-244.689-195.53-549.583-333.464-881.487c-188.792-454.284-336.263-588.866-456.231-539.011
				c-187.576,77.954-309.902,604.281-417.486,1067.177l-0.318,1.379c-69.672,299.781-120.223,429.93-176.82,416.778
				c-69.339-16.115-145.579-250.705-276.642-654.008c-33.277-102.399-70.086-215.665-110.826-337.886
				c-91.707-275.124-199.442-466.299-315.927-571.623c-78.277-70.779-160.486-102.717-244.39-95.234
				c-83.995,7.49-169.837,54.483-255.29,141.549c-162.432,165.498-323.24,475.521-467.195,934.045
				c-93.853,298.936-142.905,410.313-179.677,398.769c-31.202-9.795-51.834-108.085-82.729-255.273
				c-91.169-434.342-272.262-1297.087-1057.449-1550.09C595.742,859.19,256.087,961.123,0.322,1163.357V1157.828z"/>
		</defs>
		<clipPath id="SVGID_00000124876273514569892820000010751309185662975395_">
			<use xlink:href="#SVGID_00000006708947877260665980000015179972249432103859_"  style="overflow:visible;"/>
		</clipPath>
		
			<linearGradient id="SVGID_00000132074461456063016910000006443513038565749938_" gradientUnits="userSpaceOnUse" x1="3.9807" y1="1085.4038" x2="6766.2842" y2="3214.8772">
			<stop  offset="0" style="stop-color:#021B8C"/>
			<stop  offset="1" style="stop-color:#FF00B2"/>
		</linearGradient>
		
			<rect x="0.322" y="855.023" style="clip-path:url(#SVGID_00000124876273514569892820000010751309185662975395_);fill:url(#SVGID_00000132074461456063016910000006443513038565749938_);" width="6999.359" height="2662.581"/>
	</g>
</g>
</svg>
